<svg version="1.1" id="Layer_1" xmlns="http://www.w3.org/2000/svg" xmlns:xlink="http://www.w3.org/1999/xlink" x="0px" y="0px"
	 width="100%" viewBox="0 0 1254 1254" enable-background="new 0 0 1254 1254" xml:space="preserve">
<path fill="#00050E" opacity="1.000000" stroke="none" 
	d="
M859.000000,1255.000000 
	C572.666687,1255.000000 286.833344,1255.000000 1.000000,1255.000000 
	C1.000000,837.000000 1.000000,419.000000 1.000000,1.000000 
	C419.000000,1.000000 837.000000,1.000000 1255.000000,1.000000 
	C1255.000000,419.000000 1255.000000,837.000000 1255.000000,1255.000000 
	C1123.166626,1255.000000 991.333313,1255.000000 859.000000,1255.000000 
M566.884827,691.860657 
	C566.884827,691.860657 566.844421,691.505127 566.125488,691.742188 
	C565.802185,692.115967 565.478882,692.489685 565.167603,692.710571 
	C565.167603,692.710571 565.014465,692.701660 564.082275,692.673096 
	C559.729736,692.827698 555.377136,692.982361 550.292969,693.037781 
	C543.996582,695.132263 542.224548,697.424561 542.148804,703.823547 
	C542.078064,709.813416 542.019165,715.805481 542.104187,721.794495 
	C542.197632,728.375488 545.785583,732.155945 552.232849,732.183777 
	C571.702393,732.267883 591.174866,732.345215 610.639648,732.026672 
	C613.158569,731.985535 615.639160,729.602051 618.628601,728.004272 
	C618.801941,727.468201 618.975281,726.932068 619.694702,725.691650 
	C619.756104,697.802490 619.817505,669.913330 620.164856,641.341309 
	C620.306213,640.710449 620.229919,639.844116 620.620544,639.482849 
	C633.131226,627.915344 645.682129,616.391357 658.245789,604.881287 
	C659.182983,604.022644 660.259766,603.316406 661.507751,602.357971 
	C663.396423,604.684387 665.098389,606.712280 666.726746,608.797607 
	C677.479858,622.569275 688.217224,636.353271 699.007202,650.579224 
	C699.126831,650.892090 699.353088,651.067261 699.893188,651.732422 
	C700.863953,652.902588 701.834656,654.072754 702.827576,655.164673 
	C702.827576,655.164673 702.746887,655.175049 702.924194,655.770508 
	C703.614258,656.519897 704.304260,657.269287 705.074280,658.498596 
	C705.212219,658.833374 705.461304,659.019165 705.980103,659.573364 
	C706.118713,659.688782 706.257263,659.804260 706.615784,660.537903 
	C710.105591,665.113586 713.586670,669.696045 717.086792,674.263794 
	C730.968628,692.379761 744.797729,710.536987 758.835144,728.531616 
	C760.194763,730.274475 762.843079,732.012268 764.917419,732.041687 
	C784.242798,732.315674 803.573914,732.279907 822.902405,732.171692 
	C827.068848,732.148376 828.325195,729.328430 826.085266,725.728394 
	C825.384460,724.601929 824.504578,723.584717 823.683777,722.535461 
	C806.747559,700.885376 789.854248,679.201477 772.840759,657.612305 
	C767.816528,651.236938 762.451355,645.130127 757.045471,638.345703 
	C756.733459,638.126831 756.421387,637.907959 756.117432,637.870972 
	C756.117432,637.870972 756.298706,637.853882 756.127991,637.281433 
	C755.795166,637.084167 755.462402,636.886841 755.140442,636.726562 
	C755.140442,636.726562 755.154663,636.675354 755.096008,635.990601 
	C751.382324,630.935547 747.798645,625.778748 743.931519,620.843872 
	C730.272034,603.412964 716.568359,586.015808 702.742432,568.716919 
	C700.494507,565.904297 700.192932,564.036011 702.821533,561.181213 
	C741.508545,519.163696 780.104248,477.061981 818.614441,434.882385 
	C820.103943,433.250854 820.519897,430.639191 821.436157,428.484253 
	C819.299255,427.603851 817.171814,425.986877 815.024048,425.959412 
	C797.706726,425.737885 780.382629,425.990875 763.067627,425.691132 
	C758.104553,425.605194 754.674866,427.132233 751.370605,430.771515 
	C721.596558,463.565277 691.655029,496.206940 661.805176,528.932068 
	C648.800598,543.189270 635.895142,557.536987 622.229309,572.238098 
	C618.463989,573.966125 620.048279,570.653564 620.041931,569.619568 
	C619.944946,553.801636 619.991943,537.982849 619.992981,522.164307 
	C619.994873,493.524353 620.004028,464.884399 619.973633,436.244476 
	C619.966919,429.936523 617.033508,426.023132 611.581360,425.969940 
	C591.768921,425.776520 571.952637,425.746002 552.140137,425.916840 
	C546.191528,425.968140 542.301819,430.280548 542.104858,436.199280 
	C541.960999,440.523773 542.184875,444.860596 542.035278,449.184692 
	C541.588562,462.098480 542.600220,468.028137 560.113647,467.311188 
	C567.032532,467.027924 567.695496,467.983063 567.701477,475.167358 
	C567.726562,505.305756 567.670776,535.444214 567.716980,565.582520 
	C567.746338,584.723328 567.902893,603.864014 567.787231,623.737305 
	C567.858887,624.489990 567.930542,625.242737 567.793152,626.853088 
	C567.861938,628.903625 567.930725,630.954163 567.778931,633.918823 
	C567.787170,652.602539 567.795471,671.286316 567.745911,690.109192 
	C567.745911,690.109192 567.872314,690.191345 567.224304,690.579651 
	C566.992310,691.017090 566.760315,691.454529 566.884827,691.860657 
M446.628662,831.391785 
	C446.628662,831.391785 446.467865,831.414673 446.772034,831.900696 
	C447.091522,832.103149 447.411041,832.305664 447.732605,832.290833 
	C447.732605,832.290833 447.516052,832.308960 447.793457,832.833008 
	C448.121979,833.043030 448.450500,833.252991 448.757568,833.313721 
	C448.757568,833.313721 448.612518,833.355042 448.947571,833.908752 
	C449.968079,834.699951 450.988617,835.491089 452.311646,836.848206 
	C477.863739,858.180054 507.225494,868.989990 540.568787,868.887817 
	C560.732544,868.826050 580.915894,868.283081 601.056274,868.965271 
	C639.714478,870.274658 676.548340,862.032898 712.478821,848.847473 
	C721.658813,845.478760 730.628418,841.233276 739.121277,836.386047 
	C746.688782,832.067017 749.561035,823.728943 747.716858,816.164246 
	C745.812866,808.354126 740.453735,803.778625 731.073120,802.767700 
	C710.273987,800.526245 690.019348,801.781677 670.391602,810.407166 
	C653.349487,817.896423 635.221130,821.805054 616.505859,821.949219 
	C591.177551,822.144287 565.846619,822.094177 540.517151,822.018005 
	C526.467163,821.975830 513.152100,818.596497 500.560181,812.398499 
	C479.877747,802.218140 466.000458,785.723755 456.647552,764.272461 
	C451.463074,751.793457 449.653809,738.803772 449.880859,725.312500 
	C450.196808,706.541382 449.906494,687.760010 450.039185,668.143799 
	C449.960938,666.440735 449.882690,664.737610 449.848053,662.315796 
	C448.406738,658.406616 445.232910,658.181213 441.692993,658.188965 
	C405.036774,658.269287 368.380341,658.251404 331.724060,658.326965 
	C328.713043,658.333191 326.627502,657.917786 324.938049,654.764587 
	C311.454163,629.598389 274.643341,627.119934 257.630005,650.088501 
	C243.798035,668.762146 247.345886,694.748718 265.526062,707.924255 
	C284.374542,721.584106 310.320740,717.080750 323.706848,697.618469 
	C325.655121,694.785828 327.638641,693.745361 331.014374,693.768616 
	C352.340729,693.915649 373.668549,693.860962 394.995880,693.849548 
	C403.648163,693.844971 403.648163,693.818420 403.919006,702.800598 
	C403.980652,703.854248 404.042297,704.907837 403.935120,706.890076 
	C403.994965,713.597168 404.054810,720.304199 403.926086,727.846191 
	C403.991333,729.551758 404.056610,731.257324 403.953766,733.761292 
	C404.021027,734.841614 404.088287,735.921997 403.986420,737.872925 
	C404.963715,745.755432 405.373901,753.759216 407.028534,761.496887 
	C411.346252,781.688049 419.659302,800.125366 432.887848,816.108398 
	C432.887848,816.108398 432.806946,816.128784 432.981934,816.712585 
	C433.666046,817.438599 434.350159,818.164612 435.021454,818.972656 
	C435.021454,818.972656 435.103760,818.983704 435.199585,819.469238 
	C435.355682,819.793945 435.611725,819.983948 436.059509,820.524475 
	C436.217133,820.852905 436.477386,821.033020 437.039886,821.667603 
	C437.917603,822.569458 438.795288,823.471252 439.767822,824.227417 
	C439.767822,824.227417 439.627167,824.329590 439.904968,824.932007 
	C441.794891,826.803894 443.684845,828.675781 445.599487,830.413574 
	C445.599487,830.413574 445.463135,830.418213 445.734558,830.904297 
	C446.030975,831.120911 446.327393,831.337524 446.628662,831.391785 
M919.695679,727.751648 
	C919.654724,728.787781 919.613708,729.823853 919.119080,731.255676 
	C918.340881,732.026123 917.562683,732.796570 916.161621,733.546326 
	C915.777832,733.676208 915.394043,733.806091 914.390137,733.851746 
	C913.874817,734.130493 913.359497,734.409241 912.063477,734.741272 
	C895.294006,739.376892 881.978027,748.997437 872.588318,763.511230 
	C856.371948,788.577026 855.041077,814.964722 868.825928,841.248962 
	C882.261414,866.867004 904.604675,878.906921 933.340576,879.121277 
	C953.827515,879.274048 974.316589,879.175781 994.804626,879.133728 
	C1002.840820,879.117188 1006.310486,875.642761 1006.329895,867.524902 
	C1006.385254,844.372131 1006.915710,821.199402 1006.089844,798.076294 
	C1005.771423,789.160278 1003.380737,779.923584 1000.037964,771.594055 
	C993.488159,755.273621 980.943298,744.246216 965.011292,736.048096 
	C964.986328,635.804688 964.971008,535.561340 964.904358,435.317993 
	C964.901428,430.853455 964.431580,426.389252 964.304810,421.051147 
	C963.816101,417.590454 963.474243,414.101501 962.814941,410.673584 
	C958.395203,387.695679 949.101257,366.961914 933.946655,348.216583 
	C920.229614,331.165955 903.374634,317.905396 883.472839,309.098419 
	C872.787720,304.370056 861.135681,301.826599 849.341492,298.006592 
	C848.915466,297.983154 848.489441,297.959717 847.414734,297.521515 
	C845.607117,297.352692 843.799500,297.183868 841.530762,296.749603 
	C841.359741,296.796448 841.188721,296.843323 840.264954,296.535614 
	C835.442139,296.301117 830.619324,295.863953 825.796448,295.862061 
	C732.309387,295.825378 638.822327,295.786804 545.335327,295.860748 
	C475.921875,295.915649 416.041687,347.199493 405.999603,415.942963 
	C403.896240,430.341553 404.683990,445.184753 404.497467,459.827637 
	C404.441010,464.259033 402.959717,465.565399 398.649780,465.536194 
	C376.987549,465.389343 355.322235,465.376953 333.661346,465.619751 
	C329.047455,465.671448 326.255188,464.476685 323.601959,460.390411 
	C314.511383,446.390015 298.022736,439.944000 281.886139,443.359680 
	C265.475311,446.833405 252.893845,459.607910 249.815659,475.922241 
	C246.429489,493.868683 256.136414,512.451660 272.811829,519.946228 
	C290.604431,527.942871 311.195251,522.939392 322.861389,507.016907 
	C326.176422,502.492340 329.553009,501.167694 334.796295,501.194366 
	C370.790375,501.377594 406.785828,501.309540 442.780823,501.294037 
	C449.170502,501.291290 450.416656,500.009766 450.427429,493.704376 
	C450.459595,474.873810 450.079315,456.032501 450.588715,437.215088 
	C451.446472,405.527100 464.968262,380.180023 490.490509,361.397858 
	C505.205200,350.569122 522.044739,345.124420 540.499512,343.042603 
	C540.499512,343.042603 540.953735,342.850922 541.882019,343.028625 
	C599.325317,343.017670 656.768677,343.002808 714.211975,342.997192 
	C753.668091,342.993317 793.124146,343.002289 833.085266,343.308807 
	C854.280762,346.098755 872.985046,354.340637 888.732544,368.924377 
	C892.244385,372.176636 895.465271,375.743164 899.020630,379.818298 
	C911.986694,396.714661 919.557068,415.638062 919.590881,437.088684 
	C919.700378,506.581085 919.597778,576.073792 919.629395,645.566406 
	C919.636780,661.720154 919.851807,677.873840 919.737671,694.886414 
	C919.816650,697.251038 919.895569,699.615662 919.744690,702.754395 
	C919.823425,707.176819 919.902161,711.599182 919.753174,716.894470 
	C919.830017,719.591064 919.906799,722.287598 919.750488,725.350891 
	C919.816345,725.905823 919.882202,726.460754 919.695679,727.751648 
M336.426849,617.111572 
	C354.353577,623.885803 373.922943,618.023682 385.111267,602.103760 
	C387.353333,598.913513 389.630096,598.014221 393.293365,598.024780 
	C430.607880,598.132446 467.922882,598.082581 505.237732,598.054077 
	C514.268433,598.047119 519.437439,592.928162 519.664246,583.861572 
	C519.705933,582.196594 519.692688,580.529968 519.689453,578.864136 
	C519.663574,565.644653 515.479919,561.624146 502.349823,561.652344 
	C465.701477,561.731201 429.052795,561.662231 392.404572,561.765991 
	C389.184448,561.775146 387.407013,560.797974 385.769470,557.879150 
	C377.734650,543.557739 360.756439,535.881104 344.440033,538.826904 
	C326.292053,542.103394 313.075287,556.057129 310.806274,574.336121 
	C308.563873,592.400452 318.117432,608.726196 336.426849,617.111572 
z"/>
<path fill="#1CD7FB" opacity="1.000000" stroke="none" 
	d="
M832.580261,343.005554 
	C793.124146,343.002289 753.668091,342.993317 714.211975,342.997192 
	C656.768677,343.002808 599.325317,343.017670 541.314514,342.847198 
	C540.457092,342.560150 540.217773,342.636505 540.029175,342.894836 
	C522.044739,345.124420 505.205200,350.569122 490.490509,361.397858 
	C464.968262,380.180023 451.446472,405.527100 450.588715,437.215088 
	C450.079315,456.032501 450.459595,474.873810 450.427429,493.704376 
	C450.416656,500.009766 449.170502,501.291290 442.780823,501.294037 
	C406.785828,501.309540 370.790375,501.377594 334.796295,501.194366 
	C329.553009,501.167694 326.176422,502.492340 322.861389,507.016907 
	C311.195251,522.939392 290.604431,527.942871 272.811829,519.946228 
	C256.136414,512.451660 246.429489,493.868683 249.815659,475.922241 
	C252.893845,459.607910 265.475311,446.833405 281.886139,443.359680 
	C298.022736,439.944000 314.511383,446.390015 323.601959,460.390411 
	C326.255188,464.476685 329.047455,465.671448 333.661346,465.619751 
	C355.322235,465.376953 376.987549,465.389343 398.649780,465.536194 
	C402.959717,465.565399 404.441010,464.259033 404.497467,459.827637 
	C404.683990,445.184753 403.896240,430.341553 405.999603,415.942963 
	C416.041687,347.199493 475.921875,295.915649 545.335327,295.860748 
	C638.822327,295.786804 732.309387,295.825378 825.796448,295.862061 
	C830.619324,295.863953 835.442139,296.301117 840.631409,296.982178 
	C840.992920,297.608276 840.987915,297.787842 840.515381,297.974731 
	C800.078918,297.982025 760.109985,297.982025 720.141052,297.982025 
	C720.110962,298.491425 720.080872,299.000793 720.050781,299.510193 
	C722.557861,299.844818 725.155396,300.777252 727.556763,300.413696 
	C739.847778,298.552734 750.882263,304.051819 762.490173,306.089172 
	C765.277039,306.578339 766.977539,306.984039 768.291626,303.665283 
	C769.617432,300.316803 775.808716,299.947144 777.518616,302.714508 
	C780.548462,307.617828 780.058716,310.535126 775.721436,314.790314 
	C774.748596,315.744751 773.280762,317.841339 773.544495,318.157471 
	C776.533752,321.740082 779.290833,326.001740 783.174316,328.209259 
	C786.694702,330.210327 788.902222,332.383301 788.851929,336.000916 
	C788.788208,340.587982 791.089478,341.095184 794.771118,341.045563 
	C805.258301,340.904266 815.750732,340.888000 826.235962,341.088562 
	C828.362244,341.129242 830.466064,342.336243 832.580261,343.005554 
M280.884705,472.272797 
	C279.821442,473.546234 278.592316,474.716095 277.721985,476.109955 
	C272.303436,484.787598 278.322906,496.811646 288.333771,497.409424 
	C295.335999,497.827545 301.176361,494.368530 303.547882,488.398682 
	C305.698120,482.985809 304.013702,476.572418 299.392548,472.577423 
	C294.226562,468.111420 288.165161,467.848999 280.884705,472.272797 
M766.799805,340.886871 
	C768.463013,339.440033 770.126160,337.993195 771.789368,336.546356 
	C771.543518,336.178589 771.297668,335.810791 771.051819,335.443024 
	C766.723511,335.779022 762.395203,336.115021 757.791931,336.472382 
	C757.791931,337.344757 757.791931,338.906738 757.791931,340.963593 
	C760.706299,340.963593 763.342102,340.963593 766.799805,340.886871 
M777.324768,330.749573 
	C777.580383,330.045319 777.836060,329.341095 778.091736,328.636841 
	C777.363647,328.638397 776.635498,328.639954 775.907410,328.641510 
	C776.167480,329.344421 776.427551,330.047333 777.324768,330.749573 
M535.528564,298.502899 
	C535.528564,298.502899 535.486755,298.518585 535.528564,298.502899 
z"/>
<path fill="#1ACBFB" opacity="1.000000" stroke="none" 
	d="
M622.944641,571.843567 
	C635.895142,557.536987 648.800598,543.189270 661.805176,528.932068 
	C691.655029,496.206940 721.596558,463.565277 751.370605,430.771515 
	C754.674866,427.132233 758.104553,425.605194 763.067627,425.691132 
	C780.382629,425.990875 797.706726,425.737885 815.024048,425.959412 
	C817.171814,425.986877 819.299255,427.603851 821.436157,428.484253 
	C820.519897,430.639191 820.103943,433.250854 818.614441,434.882385 
	C780.104248,477.061981 741.508545,519.163696 702.821533,561.181213 
	C700.192932,564.036011 700.494507,565.904297 702.742432,568.716919 
	C716.568359,586.015808 730.272034,603.412964 743.931519,620.843872 
	C747.798645,625.778748 751.382324,630.935547 754.718567,636.402588 
	C753.001099,636.420044 751.582520,636.186218 750.345154,635.581665 
	C749.298889,635.070374 748.462585,634.129395 747.533325,633.378601 
	C746.993530,634.494141 746.469910,635.617981 745.907898,636.722168 
	C745.559265,637.407288 745.152100,638.062622 744.674316,638.901489 
	C738.200500,636.363770 732.019043,633.788879 725.710327,631.577026 
	C724.181641,631.041077 721.935547,631.154541 720.533936,631.916199 
	C716.423706,634.150024 712.414856,636.648682 708.663757,639.442871 
	C704.776001,642.338867 697.666382,642.493835 698.959717,650.133179 
	C688.217224,636.353271 677.479858,622.569275 666.726746,608.797607 
	C665.098389,606.712280 663.396423,604.684387 661.507751,602.357971 
	C660.259766,603.316406 659.182983,604.022644 658.245789,604.881287 
	C645.682129,616.391357 633.131226,627.915344 620.620544,639.482849 
	C620.229919,639.844116 620.306213,640.710449 619.811462,642.034424 
	C619.310730,643.538696 619.034119,644.349976 619.034790,645.160950 
	C619.056396,672.239258 619.104370,699.317627 619.148560,726.395935 
	C618.975281,726.932068 618.801941,727.468201 618.349365,727.734619 
	C617.388062,724.760864 616.247681,722.078735 616.116211,719.348083 
	C615.815491,713.100464 616.002441,706.829102 616.001099,700.567383 
	C615.997681,684.929260 616.028809,669.291077 615.959473,653.653259 
	C615.951660,651.892395 615.992859,649.173340 614.981018,648.536865 
	C609.966187,645.382935 608.896362,637.542480 601.390015,637.285278 
	C600.287109,637.247498 598.749939,635.151917 598.294861,633.726990 
	C596.969482,629.576965 595.399109,629.850159 591.742065,631.666199 
	C588.245667,633.402344 583.755188,633.748352 579.761169,633.543823 
	C578.333252,633.470764 577.093079,629.989014 575.728333,628.090942 
	C575.565369,627.864319 575.157104,627.814026 574.189453,627.380188 
	C573.498840,628.647339 572.278259,629.914124 572.147400,631.284973 
	C571.299316,640.169189 570.544373,649.068176 570.048889,657.978394 
	C569.698425,664.281128 569.706360,670.610168 569.765747,676.925537 
	C569.783813,678.846985 570.082764,680.993713 570.984131,682.636047 
	C573.678040,687.544189 573.524231,688.160583 567.803772,689.970032 
	C567.795471,671.286316 567.787170,652.602539 568.226318,633.321472 
	C570.608337,630.265808 570.951416,627.966309 568.002136,625.995422 
	C567.930542,625.242737 567.858887,624.489990 568.251221,623.210327 
	C569.142639,620.993774 569.908264,619.310303 569.939026,617.613525 
	C570.074890,610.123352 569.271606,602.542236 570.155579,595.155334 
	C571.853760,580.965454 574.607788,566.911499 573.282227,552.486023 
	C573.107666,550.585388 574.515747,548.539246 575.190857,546.560486 
	C575.768921,546.672058 576.347046,546.783630 576.925171,546.895203 
	C576.925171,553.720337 577.302185,560.575012 576.771179,567.358704 
	C576.492554,570.918030 575.182556,573.827332 580.374817,574.599487 
	C582.034729,574.846252 583.635620,576.759827 584.880432,578.234253 
	C586.825867,580.538452 587.611389,580.098328 589.188965,577.684570 
	C590.718506,575.344299 593.189819,573.553528 595.471741,571.815796 
	C596.065430,571.363770 597.495850,572.010742 598.541992,572.152954 
	C598.133545,573.099487 597.894531,574.181152 597.274475,574.958984 
	C596.462524,575.977478 595.349487,576.755981 593.584778,578.338013 
	C599.685120,579.665466 604.318848,578.429199 607.849548,575.590637 
	C610.706299,573.293945 612.594788,573.130066 615.785767,574.441956 
	C618.352051,575.497009 621.890869,576.314087 622.944641,571.843567 
z"/>
<path fill="#17C6FB" opacity="1.000000" stroke="none" 
	d="
M404.155518,737.002319 
	C404.088287,735.921997 404.021027,734.841614 404.237488,733.046021 
	C404.676300,730.561218 404.831421,728.791565 405.304169,726.857605 
	C406.479004,725.199219 407.244324,723.642517 408.212280,722.224121 
	C410.298492,719.167236 411.905762,714.438782 414.744446,713.489014 
	C423.710785,710.488953 430.637665,713.692688 435.796295,721.831665 
	C437.230804,724.095032 438.510834,724.989624 441.385803,724.541992 
	C446.500427,723.745605 447.867004,725.290405 448.016052,730.449463 
	C448.092590,733.099182 448.253204,735.762573 448.624542,738.384583 
	C449.691986,745.921143 450.660980,753.486511 452.209686,760.927979 
	C452.542389,762.526672 455.150818,763.651733 456.710938,764.994934 
	C466.000458,785.723755 479.877747,802.218140 500.560181,812.398499 
	C513.152100,818.596497 526.467163,821.975830 540.517151,822.018005 
	C565.846619,822.094177 591.177551,822.144287 616.505859,821.949219 
	C635.221130,821.805054 653.349487,817.896423 670.391602,810.407166 
	C690.019348,801.781677 710.273987,800.526245 731.073120,802.767700 
	C740.453735,803.778625 745.812866,808.354126 747.716858,816.164246 
	C749.561035,823.728943 746.688782,832.067017 739.121277,836.386047 
	C730.628418,841.233276 721.658813,845.478760 712.478821,848.847473 
	C676.548340,862.032898 639.714478,870.274658 601.056274,868.965271 
	C580.915894,868.283081 560.732544,868.826050 540.568787,868.887817 
	C507.225494,868.989990 477.863739,858.180054 452.093170,836.200562 
	C450.787323,834.820312 449.699921,834.087708 448.612518,833.355042 
	C448.612518,833.355042 448.757568,833.313721 448.622650,833.130249 
	C448.163849,832.734192 447.839966,832.521545 447.516052,832.308960 
	C447.516052,832.308960 447.732605,832.290833 447.592590,832.141541 
	C447.124359,831.799744 446.796112,831.607239 446.467865,831.414673 
	C446.467865,831.414673 446.628662,831.391785 446.515991,831.207886 
	C446.089905,830.822021 445.776520,830.620117 445.463135,830.418213 
	C445.463135,830.418213 445.599487,830.413574 445.565735,830.111023 
	C443.563751,827.982178 441.595459,826.155884 439.627167,824.329590 
	C439.627167,824.329590 439.767822,824.227417 439.734070,823.939758 
	C438.746979,822.789673 437.793640,821.927246 436.840302,821.064819 
	C436.477386,821.033020 436.217133,820.852905 435.890686,820.089722 
	C435.542480,819.406616 435.336456,819.182861 435.103760,818.983704 
	C435.103760,818.983704 435.021454,818.972656 434.989868,818.597351 
	C434.241150,817.524292 433.524048,816.826538 432.806946,816.128784 
	C432.806946,816.128784 432.887848,816.108398 432.887665,815.777588 
	C432.164032,812.814392 432.279755,809.172607 430.557892,807.741333 
	C425.626373,803.641724 422.797577,798.662415 420.662537,792.765015 
	C419.064392,788.350708 415.632019,784.600769 414.032532,780.186768 
	C409.418243,767.453186 406.837372,754.234314 405.924042,740.693054 
	C405.838776,739.428833 404.768494,738.230957 404.155518,737.002319 
z"/>
<path fill="#13BBFA" opacity="1.000000" stroke="none" 
	d="
M915.010254,733.936035 
	C915.394043,733.806091 915.777832,733.676208 916.640320,733.897949 
	C920.222229,737.859741 923.367004,737.696289 924.608643,733.185242 
	C926.740601,725.439392 935.007812,725.263123 939.251892,720.276550 
	C939.549133,719.927246 940.596497,719.942688 941.167786,720.146057 
	C944.325867,721.270142 945.983276,719.942566 948.226135,717.570557 
	C949.627991,716.088013 953.516296,716.474426 956.119690,716.949463 
	C956.770264,717.068115 957.575012,721.075195 956.929199,722.769287 
	C953.635925,731.409424 953.477600,731.349060 963.002808,731.399658 
	C963.685242,733.528503 964.364868,735.255310 965.044556,736.982117 
	C980.943298,744.246216 993.488159,755.273621 1000.037964,771.594055 
	C1003.380737,779.923584 1005.771423,789.160278 1006.089844,798.076294 
	C1006.915710,821.199402 1006.385254,844.372131 1006.329895,867.524902 
	C1006.310486,875.642761 1002.840820,879.117188 994.804626,879.133728 
	C974.316589,879.175781 953.827515,879.274048 933.340576,879.121277 
	C904.604675,878.906921 882.261414,866.867004 868.825928,841.248962 
	C855.041077,814.964722 856.371948,788.577026 872.588318,763.511230 
	C881.978027,748.997437 895.294006,739.376892 912.642700,734.908203 
	C913.817993,734.695496 914.414124,734.315735 915.010254,733.936035 
M946.736694,772.571411 
	C943.335083,771.847900 939.964233,770.741455 936.526672,770.464600 
	C917.762573,768.952881 901.293640,783.839050 900.544556,802.787415 
	C899.793152,821.796875 914.500916,836.941956 933.756287,836.981384 
	C942.917480,837.000183 952.082947,836.851379 961.238098,837.093933 
	C965.498901,837.206787 967.230835,835.893860 967.085022,831.412415 
	C966.792725,822.426514 966.862915,813.424744 966.956543,804.431274 
	C967.109375,789.757080 960.551331,779.307617 946.736694,772.571411 
z"/>
<path fill="#19CDFA" opacity="1.000000" stroke="none" 
	d="
M456.679260,764.633667 
	C455.150818,763.651733 452.542389,762.526672 452.209686,760.927979 
	C450.660980,753.486511 449.691986,745.921143 448.624542,738.384583 
	C448.253204,735.762573 448.092590,733.099182 448.016052,730.449463 
	C447.867004,725.290405 446.500427,723.745605 441.385803,724.541992 
	C438.510834,724.989624 437.230804,724.095032 435.796295,721.831665 
	C430.637665,713.692688 423.710785,710.488953 414.744446,713.489014 
	C411.905762,714.438782 410.298492,719.167236 408.212280,722.224121 
	C407.244324,723.642517 406.479004,725.199219 405.086334,726.851440 
	C404.550873,727.009583 404.114655,727.011292 404.114655,727.011292 
	C404.054810,720.304199 403.994965,713.597168 404.205139,706.178589 
	C404.353333,704.320618 404.231506,703.174133 404.109680,702.027588 
	C403.648163,693.818420 403.648163,693.844971 394.995880,693.849548 
	C373.668549,693.860962 352.340729,693.915649 331.014374,693.768616 
	C327.638641,693.745361 325.655121,694.785828 323.706848,697.618469 
	C310.320740,717.080750 284.374542,721.584106 265.526062,707.924255 
	C247.345886,694.748718 243.798035,668.762146 257.630005,650.088501 
	C274.643341,627.119934 311.454163,629.598389 324.938049,654.764587 
	C326.627502,657.917786 328.713043,658.333191 331.724060,658.326965 
	C368.380341,658.251404 405.036774,658.269287 441.692993,658.188965 
	C445.232910,658.181213 448.406738,658.406616 449.647400,662.975098 
	C449.589691,665.417297 449.732666,667.200134 449.875671,668.983032 
	C449.906494,687.760010 450.196808,706.541382 449.880859,725.312500 
	C449.653809,738.803772 451.463074,751.793457 456.679260,764.633667 
M278.495483,683.811157 
	C285.328888,691.162415 293.669281,691.616089 300.230591,684.993347 
	C306.002869,679.167114 305.712250,670.225037 299.566986,664.578186 
	C294.696594,660.102783 286.955994,659.678162 281.620148,663.593689 
	C275.479584,668.099670 274.162384,675.365601 278.495483,683.811157 
z"/>
<path fill="#19D0FA" opacity="1.000000" stroke="none" 
	d="
M336.059998,616.988037 
	C318.117432,608.726196 308.563873,592.400452 310.806274,574.336121 
	C313.075287,556.057129 326.292053,542.103394 344.440033,538.826904 
	C360.756439,535.881104 377.734650,543.557739 385.769470,557.879150 
	C387.407013,560.797974 389.184448,561.775146 392.404572,561.765991 
	C429.052795,561.662231 465.701477,561.731201 502.349823,561.652344 
	C515.479919,561.624146 519.663574,565.644653 519.689453,578.864136 
	C519.692688,580.529968 519.705933,582.196594 519.664246,583.861572 
	C519.437439,592.928162 514.268433,598.047119 505.237732,598.054077 
	C467.922882,598.082581 430.607880,598.132446 393.293365,598.024780 
	C389.630096,598.014221 387.353333,598.913513 385.111267,602.103760 
	C373.922943,618.023682 354.353577,623.885803 336.059998,616.988037 
M364.381134,575.489319 
	C361.395996,568.607422 356.806488,565.380310 350.407959,565.664185 
	C344.612061,565.921265 339.834442,569.406189 337.941315,574.757751 
	C335.977020,580.310425 337.411682,585.934204 341.746948,589.675659 
	C346.329773,593.630798 352.316681,594.428528 357.503601,591.775208 
	C362.973114,588.977295 365.492218,583.500305 364.381134,575.489319 
z"/>
<path fill="#1DD2FC" opacity="1.000000" stroke="none" 
	d="
M622.586975,572.040833 
	C621.890869,576.314087 618.352051,575.497009 615.785767,574.441956 
	C612.594788,573.130066 610.706299,573.293945 607.849548,575.590637 
	C604.318848,578.429199 599.685120,579.665466 593.584778,578.338013 
	C595.349487,576.755981 596.462524,575.977478 597.274475,574.958984 
	C597.894531,574.181152 598.133545,573.099487 598.541992,572.152954 
	C597.495850,572.010742 596.065430,571.363770 595.471741,571.815796 
	C593.189819,573.553528 590.718506,575.344299 589.188965,577.684570 
	C587.611389,580.098328 586.825867,580.538452 584.880432,578.234253 
	C583.635620,576.759827 582.034729,574.846252 580.374817,574.599487 
	C575.182556,573.827332 576.492554,570.918030 576.771179,567.358704 
	C577.302185,560.575012 576.925171,553.720337 576.925171,546.895203 
	C576.347046,546.783630 575.768921,546.672058 575.190857,546.560486 
	C574.515747,548.539246 573.107666,550.585388 573.282227,552.486023 
	C574.607788,566.911499 571.853760,580.965454 570.155579,595.155334 
	C569.271606,602.542236 570.074890,610.123352 569.939026,617.613525 
	C569.908264,619.310303 569.142639,620.993774 568.358887,622.844055 
	C567.902893,603.864014 567.746338,584.723328 567.716980,565.582520 
	C567.670776,535.444214 567.726562,505.305756 567.701477,475.167358 
	C567.695496,467.983063 567.032532,467.027924 560.113647,467.311188 
	C542.600220,468.028137 541.588562,462.098480 542.035278,449.184692 
	C542.184875,444.860596 541.960999,440.523773 542.104858,436.199280 
	C542.301819,430.280548 546.191528,425.968140 552.140137,425.916840 
	C571.952637,425.746002 591.768921,425.776520 611.581360,425.969940 
	C617.033508,426.023132 619.966919,429.936523 619.973633,436.244476 
	C620.004028,464.884399 619.994873,493.524353 619.992981,522.164307 
	C619.991943,537.982849 619.944946,553.801636 620.041931,569.619568 
	C620.048279,570.653564 618.463989,573.966125 622.586975,572.040833 
z"/>
<path fill="#19C4FD" opacity="1.000000" stroke="none" 
	d="
M963.000000,730.997559 
	C953.477600,731.349060 953.635925,731.409424 956.929199,722.769287 
	C957.575012,721.075195 956.770264,717.068115 956.119690,716.949463 
	C953.516296,716.474426 949.627991,716.088013 948.226135,717.570557 
	C945.983276,719.942566 944.325867,721.270142 941.167786,720.146057 
	C940.596497,719.942688 939.549133,719.927246 939.251892,720.276550 
	C935.007812,725.263123 926.740601,725.439392 924.608643,733.185242 
	C923.367004,737.696289 920.222229,737.859741 916.951721,733.908325 
	C917.562683,732.796570 918.340881,732.026123 919.684937,731.005005 
	C920.500549,729.502930 920.750305,728.251465 920.944763,726.715942 
	C920.587524,725.949341 920.285583,725.466736 919.983643,724.984192 
	C919.906799,722.287598 919.830017,719.591064 920.129517,716.184326 
	C923.190186,710.863525 922.038879,706.403931 919.974487,701.980286 
	C919.895569,699.615662 919.816650,697.251038 920.089600,694.113770 
	C920.960205,685.928589 921.891052,678.518005 921.926880,671.103027 
	C922.089905,637.403503 922.000793,603.702759 922.346924,569.928467 
	C923.698547,569.034546 925.001099,568.402710 925.663452,567.362976 
	C929.185852,561.833557 932.433105,556.125427 936.070374,550.675842 
	C936.732361,549.683960 938.730347,549.308533 940.164490,549.160278 
	C944.081604,548.755432 949.630005,550.149841 951.619873,548.059387 
	C955.494446,543.988892 957.358765,538.014221 960.104248,532.854065 
	C960.985718,531.197388 962.019775,529.621887 962.986267,528.477295 
	C962.992371,596.296082 962.996155,663.646851 963.000000,730.997559 
z"/>
<path fill="#1BD0FA" opacity="1.000000" stroke="none" 
	d="
M832.832764,343.157166 
	C830.466064,342.336243 828.362244,341.129242 826.235962,341.088562 
	C815.750732,340.888000 805.258301,340.904266 794.771118,341.045563 
	C791.089478,341.095184 788.788208,340.587982 788.851929,336.000916 
	C788.902222,332.383301 786.694702,330.210327 783.174316,328.209259 
	C779.290833,326.001740 776.533752,321.740082 773.544495,318.157471 
	C773.280762,317.841339 774.748596,315.744751 775.721436,314.790314 
	C780.058716,310.535126 780.548462,307.617828 777.518616,302.714508 
	C775.808716,299.947144 769.617432,300.316803 768.291626,303.665283 
	C766.977539,306.984039 765.277039,306.578339 762.490173,306.089172 
	C750.882263,304.051819 739.847778,298.552734 727.556763,300.413696 
	C725.155396,300.777252 722.557861,299.844818 720.050781,299.510193 
	C720.080872,299.000793 720.110962,298.491425 720.141052,297.982025 
	C760.109985,297.982025 800.078918,297.982025 840.711060,297.846985 
	C841.620544,297.515503 841.826416,297.283173 841.991882,297.015045 
	C843.799500,297.183868 845.607117,297.352692 847.870850,297.908020 
	C848.857971,298.295441 849.388977,298.296326 849.919983,298.297211 
	C861.135681,301.826599 872.787720,304.370056 883.472839,309.098419 
	C903.374634,317.905396 920.229614,331.165955 933.985596,348.595764 
	C934.024536,348.974945 933.900208,349.088470 933.568604,348.992584 
	C927.912415,345.507355 927.934631,345.519806 924.584839,351.506409 
	C924.124451,352.329254 923.449707,353.230164 922.643677,353.628662 
	C918.194275,355.828613 911.278015,354.654449 907.696655,350.979645 
	C905.926208,349.163086 904.816406,348.570374 903.170044,351.162476 
	C897.913208,359.438812 894.548401,360.274933 886.159180,355.746887 
	C885.722046,355.510925 885.270203,354.984650 884.880920,355.033936 
	C883.353455,355.227173 881.848328,355.597015 879.468567,356.075439 
	C883.367126,359.304688 886.278870,361.238495 888.572388,363.739319 
	C891.320435,366.735840 893.608887,370.168335 895.961121,373.507324 
	C897.156616,375.204254 898.055420,377.110291 899.021118,378.982544 
	C898.954041,379.043304 898.820068,379.165039 898.820068,379.165039 
	C895.465271,375.743164 892.244385,372.176636 888.732544,368.924377 
	C872.985046,354.340637 854.280762,346.098755 832.832764,343.157166 
z"/>
<path fill="#17C2FB" opacity="1.000000" stroke="none" 
	d="
M698.983459,650.356201 
	C697.666382,642.493835 704.776001,642.338867 708.663757,639.442871 
	C712.414856,636.648682 716.423706,634.150024 720.533936,631.916199 
	C721.935547,631.154541 724.181641,631.041077 725.710327,631.577026 
	C732.019043,633.788879 738.200500,636.363770 744.674316,638.901489 
	C745.152100,638.062622 745.559265,637.407288 745.907898,636.722168 
	C746.469910,635.617981 746.993530,634.494141 747.533325,633.378601 
	C748.462585,634.129395 749.298889,635.070374 750.345154,635.581665 
	C751.582520,636.186218 753.001099,636.420044 754.747925,636.744934 
	C755.154663,636.675354 755.140442,636.726562 755.283936,636.945923 
	C755.717896,637.394775 756.008301,637.624329 756.298706,637.853882 
	C756.298706,637.853882 756.117432,637.870972 756.261902,638.019653 
	C756.685059,638.412354 756.963745,638.656311 757.242432,638.900269 
	C762.451355,645.130127 767.816528,651.236938 772.840759,657.612305 
	C789.854248,679.201477 806.747559,700.885376 823.683777,722.535461 
	C824.504578,723.584717 825.384460,724.601929 826.085266,725.728394 
	C828.325195,729.328430 827.068848,732.148376 822.902405,732.171692 
	C803.573914,732.279907 784.242798,732.315674 764.917419,732.041687 
	C762.843079,732.012268 760.194763,730.274475 758.835144,728.531616 
	C744.797729,710.536987 730.968628,692.379761 717.086792,674.263794 
	C713.586670,669.696045 710.105591,665.113586 706.515381,660.083923 
	C706.328186,659.335938 706.130371,659.144592 705.821533,659.055969 
	C705.461304,659.019165 705.212219,658.833374 705.004883,657.911316 
	C704.205994,656.607727 703.476440,655.891357 702.746887,655.175049 
	C702.746887,655.175049 702.827576,655.164673 702.840820,654.819946 
	C701.797974,653.351746 700.741882,652.228271 699.685852,651.104797 
	C699.353088,651.067261 699.126831,650.892090 698.983459,650.356201 
z"/>
<path fill="#17C5FC" opacity="1.000000" stroke="none" 
	d="
M567.774841,690.039612 
	C573.524231,688.160583 573.678040,687.544189 570.984131,682.636047 
	C570.082764,680.993713 569.783813,678.846985 569.765747,676.925537 
	C569.706360,670.610168 569.698425,664.281128 570.048889,657.978394 
	C570.544373,649.068176 571.299316,640.169189 572.147400,631.284973 
	C572.278259,629.914124 573.498840,628.647339 574.189453,627.380188 
	C575.157104,627.814026 575.565369,627.864319 575.728333,628.090942 
	C577.093079,629.989014 578.333252,633.470764 579.761169,633.543823 
	C583.755188,633.748352 588.245667,633.402344 591.742065,631.666199 
	C595.399109,629.850159 596.969482,629.576965 598.294861,633.726990 
	C598.749939,635.151917 600.287109,637.247498 601.390015,637.285278 
	C608.896362,637.542480 609.966187,645.382935 614.981018,648.536865 
	C615.992859,649.173340 615.951660,651.892395 615.959473,653.653259 
	C616.028809,669.291077 615.997681,684.929260 616.001099,700.567383 
	C616.002441,706.829102 615.815491,713.100464 616.116211,719.348083 
	C616.247681,722.078735 617.388062,724.760864 618.103882,727.884277 
	C615.639160,729.602051 613.158569,731.985535 610.639648,732.026672 
	C591.174866,732.345215 571.702393,732.267883 552.232849,732.183777 
	C545.785583,732.155945 542.197632,728.375488 542.104187,721.794495 
	C542.019165,715.805481 542.078064,709.813416 542.148804,703.823547 
	C542.224548,697.424561 543.996582,695.132263 550.901428,693.381714 
	C556.600708,695.960388 562.403809,695.520325 565.014465,692.701660 
	C565.014465,692.701660 565.167603,692.710571 565.495056,692.629517 
	C566.163147,692.200623 566.503784,691.852905 566.844421,691.505127 
	C566.844421,691.505127 566.884827,691.860657 566.990723,691.641968 
	C567.355164,691.012573 567.613770,690.601990 567.872314,690.191345 
	C567.872314,690.191345 567.745911,690.109192 567.774841,690.039612 
z"/>
<path fill="#1BD0FA" opacity="1.000000" stroke="none" 
	d="
M922.002441,570.002441 
	C922.000793,603.702759 922.089905,637.403503 921.926880,671.103027 
	C921.891052,678.518005 920.960205,685.928589 920.206482,693.684326 
	C919.851807,677.873840 919.636780,661.720154 919.629395,645.566406 
	C919.597778,576.073792 919.700378,506.581085 919.590881,437.088684 
	C919.557068,415.638062 911.986694,396.714661 898.920349,379.491669 
	C898.820068,379.165039 898.954041,379.043304 899.350647,379.073730 
	C902.849854,383.106354 906.488831,386.804596 908.959717,391.164734 
	C918.349121,407.733032 922.189331,425.673035 922.078003,444.722687 
	C921.834106,486.481354 922.002441,528.242371 922.002441,570.002441 
z"/>
<path fill="#1CD7FB" opacity="1.000000" stroke="none" 
	d="
M963.002808,731.399658 
	C962.996155,663.646851 962.992371,596.296082 962.991272,528.007446 
	C962.991638,492.045044 962.989258,457.020508 963.285034,421.979919 
	C963.781982,421.950867 963.980652,421.937866 964.179199,421.924896 
	C964.431580,426.389252 964.901428,430.853455 964.904358,435.317993 
	C964.971008,535.561340 964.986328,635.804688 965.027954,736.515137 
	C964.364868,735.255310 963.685242,733.528503 963.002808,731.399658 
z"/>
<path fill="#19CDFA" opacity="1.000000" stroke="none" 
	d="
M404.070984,737.437622 
	C404.768494,738.230957 405.838776,739.428833 405.924042,740.693054 
	C406.837372,754.234314 409.418243,767.453186 414.032532,780.186768 
	C415.632019,784.600769 419.064392,788.350708 420.662537,792.765015 
	C422.797577,798.662415 425.626373,803.641724 430.557892,807.741333 
	C432.279755,809.172607 432.164032,812.814392 432.873535,815.816772 
	C419.659302,800.125366 411.346252,781.688049 407.028534,761.496887 
	C405.373901,753.759216 404.963715,745.755432 404.070984,737.437622 
z"/>
<path fill="#1BD0FA" opacity="1.000000" stroke="none" 
	d="
M964.242065,421.488037 
	C963.980652,421.937866 963.781982,421.950867 963.062927,421.657654 
	C962.424072,421.043518 962.237244,420.744263 962.196655,420.426361 
	C959.200500,396.928894 951.925842,375.137573 937.039978,356.272614 
	C935.473877,354.287842 934.922424,351.502441 933.900208,349.088470 
	C933.900208,349.088470 934.024536,348.974945 934.086426,348.917938 
	C949.101257,366.961914 958.395203,387.695679 962.814941,410.673584 
	C963.474243,414.101501 963.816101,417.590454 964.242065,421.488037 
z"/>
<path fill="#13BBFA" opacity="1.000000" stroke="none" 
	d="
M619.421631,726.043823 
	C619.104370,699.317627 619.056396,672.239258 619.034790,645.160950 
	C619.034119,644.349976 619.310730,643.538696 619.668457,642.375854 
	C619.817505,669.913330 619.756104,697.802490 619.421631,726.043823 
z"/>
<path fill="#1BD0FA" opacity="1.000000" stroke="none" 
	d="
M919.859619,702.367310 
	C922.038879,706.403931 923.190186,710.863525 920.243347,715.747864 
	C919.902161,711.599182 919.823425,707.176819 919.859619,702.367310 
z"/>
<path fill="#1ACBFB" opacity="1.000000" stroke="none" 
	d="
M564.548340,692.687378 
	C562.403809,695.520325 556.600708,695.960388 551.267212,693.431335 
	C555.377136,692.982361 559.729736,692.827698 564.548340,692.687378 
z"/>
<path fill="#19CDFA" opacity="1.000000" stroke="none" 
	d="
M439.766052,824.630798 
	C441.595459,826.155884 443.563751,827.982178 445.553406,830.178101 
	C443.684845,828.675781 441.794891,826.803894 439.766052,824.630798 
z"/>
<path fill="#1DD2FC" opacity="1.000000" stroke="none" 
	d="
M567.897644,626.424255 
	C570.951416,627.966309 570.608337,630.265808 568.336609,632.864380 
	C567.930725,630.954163 567.861938,628.903625 567.897644,626.424255 
z"/>
<path fill="#1ACBFB" opacity="1.000000" stroke="none" 
	d="
M699.789551,651.418579 
	C700.741882,652.228271 701.797974,653.351746 702.829712,654.859009 
	C701.834656,654.072754 700.863953,652.902588 699.789551,651.418579 
z"/>
<path fill="#1ACBFB" opacity="1.000000" stroke="none" 
	d="
M921.000000,727.000000 
	C920.750305,728.251465 920.500549,729.502930 919.911743,730.807190 
	C919.613708,729.823853 919.654724,728.787781 920.084839,727.379028 
	C920.649353,727.004333 920.824646,727.002136 921.000000,727.000000 
z"/>
<path fill="#19CDFA" opacity="1.000000" stroke="none" 
	d="
M436.940094,821.366211 
	C437.793640,821.927246 438.746979,822.789673 439.686646,824.012573 
	C438.795288,823.471252 437.917603,822.569458 436.940094,821.366211 
z"/>
<path fill="#19CDFA" opacity="1.000000" stroke="none" 
	d="
M448.780029,833.631897 
	C449.699921,834.087708 450.787323,834.820312 451.941895,835.917603 
	C450.988617,835.491089 449.968079,834.699951 448.780029,833.631897 
z"/>
<path fill="#17C6FB" opacity="1.000000" stroke="none" 
	d="
M449.957428,668.563416 
	C449.732666,667.200134 449.589691,665.417297 449.625549,663.334473 
	C449.882690,664.737610 449.960938,666.440735 449.957428,668.563416 
z"/>
<path fill="#13BBFA" opacity="1.000000" stroke="none" 
	d="
M404.020386,727.428711 
	C404.114655,727.011292 404.550873,727.009583 404.768707,727.015747 
	C404.831421,728.791565 404.676300,730.561218 404.321533,732.646851 
	C404.056610,731.257324 403.991333,729.551758 404.020386,727.428711 
z"/>
<path fill="#1ACBFB" opacity="1.000000" stroke="none" 
	d="
M702.835571,655.472778 
	C703.476440,655.891357 704.205994,656.607727 704.964966,657.671387 
	C704.304260,657.269287 703.614258,656.519897 702.835571,655.472778 
z"/>
<path fill="#19CDFA" opacity="1.000000" stroke="none" 
	d="
M432.894440,816.420654 
	C433.524048,816.826538 434.241150,817.524292 434.996277,818.556335 
	C434.350159,818.164612 433.666046,817.438599 432.894440,816.420654 
z"/>
<path fill="#13BBFA" opacity="1.000000" stroke="none" 
	d="
M404.014343,702.414062 
	C404.231506,703.174133 404.353333,704.320618 404.289551,705.714355 
	C404.042297,704.907837 403.980652,703.854248 404.014343,702.414062 
z"/>
<path fill="#1BD0FA" opacity="1.000000" stroke="none" 
	d="
M920.944702,726.715942 
	C920.824646,727.002136 920.649353,727.004333 920.211060,727.011108 
	C919.882202,726.460754 919.816345,725.905823 919.867065,725.167542 
	C920.285583,725.466736 920.587524,725.949341 920.944702,726.715942 
z"/>
<path fill="#19C4FD" opacity="1.000000" stroke="none" 
	d="
M914.700195,733.893921 
	C914.414124,734.315735 913.817993,734.695496 913.033081,734.881592 
	C913.359497,734.409241 913.874817,734.130493 914.700195,733.893921 
z"/>
<path fill="#19CDFA" opacity="1.000000" stroke="none" 
	d="
M849.630737,298.151917 
	C849.388977,298.296326 848.857971,298.295441 848.195190,298.115417 
	C848.489441,297.959717 848.915466,297.983154 849.630737,298.151917 
z"/>
<path fill="#1ACBFB" opacity="1.000000" stroke="none" 
	d="
M756.213379,637.567627 
	C756.008301,637.624329 755.717896,637.394775 755.278564,636.927368 
	C755.462402,636.886841 755.795166,637.084167 756.213379,637.567627 
z"/>
<path fill="#19CDFA" opacity="1.000000" stroke="none" 
	d="
M841.761353,296.882324 
	C841.826416,297.283173 841.620544,297.515503 841.178589,297.839691 
	C840.987915,297.787842 840.992920,297.608276 841.007812,297.159424 
	C841.188721,296.843323 841.359741,296.796448 841.761353,296.882324 
z"/>
<path fill="#19CDFA" opacity="1.000000" stroke="none" 
	d="
M447.654785,832.570984 
	C447.839966,832.521545 448.163849,832.734192 448.633362,833.204956 
	C448.450500,833.252991 448.121979,833.043030 447.654785,832.570984 
z"/>
<path fill="#19CDFA" opacity="1.000000" stroke="none" 
	d="
M446.619934,831.657715 
	C446.796112,831.607239 447.124359,831.799744 447.591553,832.250183 
	C447.411041,832.305664 447.091522,832.103149 446.619934,831.657715 
z"/>
<path fill="#19CDFA" opacity="1.000000" stroke="none" 
	d="
M445.598846,830.661255 
	C445.776520,830.620117 446.089905,830.822021 446.513550,831.289062 
	C446.327393,831.337524 446.030975,831.120911 445.598846,830.661255 
z"/>
<path fill="#19CDFA" opacity="1.000000" stroke="none" 
	d="
M435.151672,819.226440 
	C435.336456,819.182861 435.542480,819.406616 435.844818,819.847168 
	C435.611725,819.983948 435.355682,819.793945 435.151672,819.226440 
z"/>
<path fill="#1BD0FA" opacity="1.000000" stroke="none" 
	d="
M540.264343,342.968719 
	C540.217773,342.636505 540.457092,342.560150 540.850342,342.758362 
	C540.953735,342.850922 540.499512,343.042603 540.264343,342.968719 
z"/>
<path fill="#1ACBFB" opacity="1.000000" stroke="none" 
	d="
M566.484985,691.623657 
	C566.503784,691.852905 566.163147,692.200623 565.489014,692.705933 
	C565.478882,692.489685 565.802185,692.115967 566.484985,691.623657 
z"/>
<path fill="#1ACBFB" opacity="1.000000" stroke="none" 
	d="
M757.143921,638.622986 
	C756.963745,638.656311 756.685059,638.412354 756.257874,637.928711 
	C756.421387,637.907959 756.733459,638.126831 757.143921,638.622986 
z"/>
<path fill="#1ACBFB" opacity="1.000000" stroke="none" 
	d="
M705.900818,659.314697 
	C706.130371,659.144592 706.328186,659.335938 706.405396,659.774841 
	C706.257263,659.804260 706.118713,659.688782 705.900818,659.314697 
z"/>
<path fill="#1ACBFB" opacity="1.000000" stroke="none" 
	d="
M567.548340,690.385498 
	C567.613770,690.601990 567.355164,691.012573 566.812500,691.657593 
	C566.760315,691.454529 566.992310,691.017090 567.548340,690.385498 
z"/>
<path fill="#010710" opacity="1.000000" stroke="none" 
	d="
M281.174194,472.036987 
	C288.165161,467.848999 294.226562,468.111420 299.392548,472.577423 
	C304.013702,476.572418 305.698120,482.985809 303.547882,488.398682 
	C301.176361,494.368530 295.335999,497.827545 288.333771,497.409424 
	C278.322906,496.811646 272.303436,484.787598 277.721985,476.109955 
	C278.592316,474.716095 279.821442,473.546234 281.174194,472.036987 
z"/>
<path fill="#1BD0FA" opacity="1.000000" stroke="none" 
	d="
M766.388794,340.925232 
	C763.342102,340.963593 760.706299,340.963593 757.791931,340.963593 
	C757.791931,338.906738 757.791931,337.344757 757.791931,336.472382 
	C762.395203,336.115021 766.723511,335.779022 771.051819,335.443024 
	C771.297668,335.810791 771.543518,336.178589 771.789368,336.546356 
	C770.126160,337.993195 768.463013,339.440033 766.388794,340.925232 
z"/>
<path fill="#1BD0FA" opacity="1.000000" stroke="none" 
	d="
M777.006165,330.749908 
	C776.427551,330.047333 776.167480,329.344421 775.907410,328.641510 
	C776.635498,328.639954 777.363647,328.638397 778.091736,328.636841 
	C777.836060,329.341095 777.580383,330.045319 777.006165,330.749908 
z"/>
<path fill="#1BD0FA" opacity="1.000000" stroke="none" 
	d="
M535.507690,298.510742 
	C535.486755,298.518585 535.528564,298.502899 535.507690,298.510742 
z"/>
<path fill="#010710" opacity="1.000000" stroke="none" 
	d="
M947.099121,772.710205 
	C960.551331,779.307617 967.109375,789.757080 966.956543,804.431274 
	C966.862915,813.424744 966.792725,822.426514 967.085022,831.412415 
	C967.230835,835.893860 965.498901,837.206787 961.238098,837.093933 
	C952.082947,836.851379 942.917480,837.000183 933.756287,836.981384 
	C914.500916,836.941956 899.793152,821.796875 900.544556,802.787415 
	C901.293640,783.839050 917.762573,768.952881 936.526672,770.464600 
	C939.964233,770.741455 943.335083,771.847900 947.099121,772.710205 
z"/>
<path fill="#010710" opacity="1.000000" stroke="none" 
	d="
M278.282227,683.497009 
	C274.162384,675.365601 275.479584,668.099670 281.620148,663.593689 
	C286.955994,659.678162 294.696594,660.102783 299.566986,664.578186 
	C305.712250,670.225037 306.002869,679.167114 300.230591,684.993347 
	C293.669281,691.616089 285.328888,691.162415 278.282227,683.497009 
z"/>
<path fill="#010710" opacity="1.000000" stroke="none" 
	d="
M364.511414,575.872620 
	C365.492218,583.500305 362.973114,588.977295 357.503601,591.775208 
	C352.316681,594.428528 346.329773,593.630798 341.746948,589.675659 
	C337.411682,585.934204 335.977020,580.310425 337.941315,574.757751 
	C339.834442,569.406189 344.612061,565.921265 350.407959,565.664185 
	C356.806488,565.380310 361.395996,568.607422 364.511414,575.872620 
z"/>
<path fill="#1ACBFB" opacity="1.000000" stroke="none" 
	d="
M933.568604,348.992584 
	C934.922424,351.502441 935.473877,354.287842 937.039978,356.272614 
	C951.925842,375.137573 959.200500,396.928894 962.196655,420.426361 
	C962.237244,420.744263 962.424072,421.043518 962.764771,421.673706 
	C962.989258,457.020508 962.991638,492.045044 962.989014,527.539429 
	C962.019775,529.621887 960.985718,531.197388 960.104248,532.854065 
	C957.358765,538.014221 955.494446,543.988892 951.619873,548.059387 
	C949.630005,550.149841 944.081604,548.755432 940.164490,549.160278 
	C938.730347,549.308533 936.732361,549.683960 936.070374,550.675842 
	C932.433105,556.125427 929.185852,561.833557 925.663452,567.362976 
	C925.001099,568.402710 923.698547,569.034546 922.346924,569.928467 
	C922.002441,528.242371 921.834106,486.481354 922.078003,444.722687 
	C922.189331,425.673035 918.349121,407.733032 908.959717,391.164734 
	C906.488831,386.804596 902.849854,383.106354 899.417725,379.013000 
	C898.055420,377.110291 897.156616,375.204254 895.961121,373.507324 
	C893.608887,370.168335 891.320435,366.735840 888.572388,363.739319 
	C886.278870,361.238495 883.367126,359.304688 879.468567,356.075439 
	C881.848328,355.597015 883.353455,355.227173 884.880920,355.033936 
	C885.270203,354.984650 885.722046,355.510925 886.159180,355.746887 
	C894.548401,360.274933 897.913208,359.438812 903.170044,351.162476 
	C904.816406,348.570374 905.926208,349.163086 907.696655,350.979645 
	C911.278015,354.654449 918.194275,355.828613 922.643677,353.628662 
	C923.449707,353.230164 924.124451,352.329254 924.584839,351.506409 
	C927.934631,345.519806 927.912415,345.507355 933.568604,348.992584 
z"/>
</svg>