<?xml version="1.0" encoding="UTF-8"?>
<svg version="1.1" xmlns="http://www.w3.org/2000/svg" width="1536" height="1024">
<path d="M0 0 C506.88 0 1013.76 0 1536 0 C1536 337.92 1536 675.84 1536 1024 C1029.12 1024 522.24 1024 0 1024 C0 686.08 0 348.16 0 0 Z " fill="#00040E" transform="translate(0,0)"/>
<path d="M0 0 C1.22555003 -0.00382555 2.45110006 -0.00765109 3.71378797 -0.01159257 C7.09451281 -0.02009226 10.47501882 -0.01970174 13.85573709 -0.01541197 C17.5103273 -0.01293681 21.16489237 -0.02196891 24.81947327 -0.02944946 C31.97247343 -0.04217843 39.12543602 -0.04399225 46.27844561 -0.0416492 C52.09760606 -0.03986318 57.91675514 -0.04162178 63.73591423 -0.04587364 C64.56545899 -0.04646883 65.39500375 -0.04706402 66.24968622 -0.04767724 C67.93519772 -0.04888906 69.62070921 -0.0501032 71.3062207 -0.05131962 C87.10383276 -0.06218908 102.90142346 -0.060036 118.69903671 -0.05393478 C133.12420281 -0.04877113 147.54930127 -0.06000752 161.97445399 -0.07903299 C176.80962536 -0.0984481 191.64476479 -0.10666065 206.47994894 -0.10290974 C214.79921693 -0.10100262 223.11842743 -0.10343696 231.43768501 -0.11762428 C238.52347224 -0.12958627 245.60916662 -0.13088964 252.69495524 -0.11883412 C256.30406018 -0.11297784 259.91299572 -0.11175459 263.522089 -0.12383652 C296.63374371 -0.22695313 323.58345878 6.15422295 348.28575134 29.51069641 C362.0463629 43.9013726 370.43533701 61.20994275 375.59825134 80.26069641 C375.94482064 81.4021965 376.29138994 82.54369659 376.64846134 83.7197876 C378.03020452 89.31860993 377.849922 94.8990676 377.80270386 100.63398743 C377.79975062 102.48562295 377.79975062 102.48562295 377.79673773 104.37466526 C377.7910231 107.0745848 377.78164746 109.77419669 377.76599693 112.47404861 C377.74058038 116.86775343 377.729137 121.26143336 377.71943665 125.65519714 C377.70618454 131.20827575 377.68928061 136.761323 377.66810042 142.31437707 C377.62664682 153.22430765 377.61117943 164.13414129 377.60522461 175.04414368 C377.60416085 176.76338801 377.60308551 178.48263233 377.60199875 180.20187664 C377.60038405 182.807006 377.59879614 185.41213537 377.59727834 188.01726478 C377.59151506 197.82920582 377.5834559 207.64114297 377.5721283 217.45307922 C377.57110249 218.34962239 377.57007669 219.24616555 377.5690198 220.16987669 C377.55133958 234.70731392 377.50065512 249.24447977 377.43964701 263.78179133 C377.37792259 278.71640123 377.3581287 293.65067061 377.37558562 308.58539867 C377.3848943 317.79312822 377.36056651 326.99952409 377.29297263 336.20701575 C377.24965206 342.51560019 377.24651214 348.82340185 377.27493238 355.13206792 C377.29009521 358.7713581 377.28739991 362.40832732 377.23653221 366.04734421 C377.18179194 369.99502934 377.21234027 373.93947156 377.25094604 377.8874054 C377.20667422 379.60686544 377.20667422 379.60686544 377.16150802 381.36106205 C377.27378685 386.30278488 377.45248852 389.11752269 381.04398072 392.70089912 C383.82183467 394.7153041 386.66881136 396.47904159 389.59825134 398.26069641 C400.91241258 410.37586022 405.25056701 424.25162433 404.91075134 440.45210266 C404.20170037 455.48693775 396.38326473 468.15505395 385.59825134 478.26069641 C373.19876391 487.86800297 360.05701182 491.12769568 344.59825134 490.26069641 C336.32066611 489.14542226 330.16467913 486.17740433 323.28965759 481.49116516 C320.64669022 479.93612467 320.64669022 479.93612467 317.87559509 480.99897766 C317.12407166 481.41534485 316.37254822 481.83171204 315.59825134 482.26069641 C313.00541239 483.55711589 311.13689683 483.38727467 308.23194313 483.38933086 C307.08584088 483.39255531 305.93973863 483.39577976 304.75890601 483.39910191 C303.48890419 483.39755331 302.21890237 483.39600471 300.91041565 483.39440918 C299.55605708 483.39627596 298.20169906 483.39857613 296.8473419 483.4012745 C293.11250248 483.407416 289.37768537 483.40725614 285.64284205 483.40608013 C281.61943002 483.40587669 277.59602526 483.41138958 273.57261658 483.4161377 C265.68272951 483.4244592 257.79284991 483.42719327 249.90295883 483.42775007 C243.48720376 483.42822481 237.07145116 483.43027746 230.65569687 483.4334507 C212.46691549 483.44226371 194.27814002 483.44686942 176.0893565 483.44612022 C174.61721892 483.44606029 174.61721892 483.44606029 173.11534119 483.44599915 C172.13271704 483.44595826 171.15009289 483.44591738 170.13769226 483.44587526 C154.23179439 483.44546928 138.32592025 483.45502503 122.42002924 483.46913751 C106.08896707 483.48351276 89.75791647 483.49040697 73.42684782 483.48954374 C64.25806705 483.48921202 55.08931111 483.49194771 45.92053604 483.50272179 C38.1087498 483.51184221 30.29699964 483.51398962 22.48521037 483.50721236 C18.50201049 483.50395407 14.51887974 483.50386524 10.53568649 483.51256561 C6.88236135 483.52046296 3.22915979 483.51896638 -0.42416246 483.51028148 C-2.35776846 483.50803485 -4.29137839 483.51554999 -6.22496927 483.52352113 C-34.73677189 483.41166118 -59.50242603 471.08554641 -79.65174866 451.44819641 C-89.74883955 441.21999576 -96.50790353 429.23781725 -102.40174866 416.26069641 C-102.89803772 415.16886047 -103.39432678 414.07702454 -103.90565491 412.95210266 C-110.8026823 396.46100134 -110.90280918 379.27581786 -111.08924866 361.69819641 C-111.12250839 359.51132816 -111.15700564 357.32447836 -111.19276428 355.13764954 C-111.2766584 349.84545924 -111.34540839 344.55324814 -111.40174866 339.26069641 C-119.25116017 339.07499126 -127.10005346 338.93301983 -134.95111275 338.84619904 C-138.59723341 338.8045182 -142.24184702 338.74803332 -145.88710022 338.65718079 C-149.40801049 338.56998077 -152.92747577 338.52236883 -156.44938278 338.50167847 C-158.4405923 338.4797923 -160.43122333 338.4173791 -162.42155457 338.35432434 C-168.93732239 338.16230086 -168.93732239 338.16230086 -174.50642395 341.01609802 C-176.0097187 343.03196663 -177.18787576 345.06436014 -178.40174866 347.26069641 C-180.96424866 349.50288391 -180.96424866 349.50288391 -183.40174866 351.13569641 C-184.20612366 351.68999329 -185.01049866 352.24429016 -185.83924866 352.81538391 C-193.94665089 357.38815651 -203.3359012 357.43378218 -212.40174866 356.26069641 C-221.05925748 353.61926321 -228.31319444 348.55075272 -232.89784241 340.69819641 C-237.88892628 330.97053153 -239.58951217 320.34748749 -236.30799866 309.71772766 C-231.35971813 299.33423475 -224.89528463 293.70026932 -214.40174866 289.26069641 C-206.89315067 286.75783042 -195.77018116 287.14614395 -188.41737366 290.16304016 C-180.88498261 294.2649818 -175.37120603 299.61754516 -171.40174866 307.26069641 C-171.40174866 307.92069641 -171.40174866 308.58069641 -171.40174866 309.26069641 C-169.64195175 309.25403458 -169.64195175 309.25403458 -167.84660339 309.24723816 C-156.81012928 309.20675933 -145.77367015 309.17674442 -134.73713875 309.15707207 C-129.06264791 309.14661846 -123.38821682 309.13243058 -117.71376038 309.1098175 C-112.24137151 309.08814525 -106.76904024 309.07613967 -101.29661179 309.07094193 C-99.20494047 309.06723604 -97.11327243 309.05999978 -95.02162552 309.0492363 C-92.10024867 309.034796 -89.17911227 309.03271533 -86.25770569 309.03364563 C-85.38592682 309.02645508 -84.51414795 309.01926453 -83.61595154 309.01185608 C-77.62985298 309.03259209 -77.62985298 309.03259209 -75.40174866 311.26069641 C-75.15692139 314.10675049 -75.15692139 314.10675049 -75.1622467 317.79560852 C-75.16023254 318.46763809 -75.15821838 319.13966766 -75.15614319 319.83206177 C-75.1525914 321.29654466 -75.1533725 322.76104286 -75.15791893 324.22552299 C-75.16352591 326.5624216 -75.15432367 328.89882602 -75.14071655 331.23568726 C-75.10369802 337.88230708 -75.0848748 344.52877126 -75.09632874 351.17549133 C-75.13053917 379.72619185 -73.92753592 405.03302045 -52.96131897 426.75141907 C-37.82431013 441.40029018 -19.0743238 447.5730027 1.64552307 447.53916931 C2.92813566 447.54496171 4.21074824 447.55075412 5.53222787 447.55672204 C9.06694171 447.57242378 12.60157586 447.57594726 16.13632035 447.57737064 C19.95760725 447.58108198 23.7788513 447.59624601 27.60011292 447.60998535 C34.21229727 447.63220776 40.82446628 447.64725115 47.43667984 447.65735245 C56.99670422 447.67196751 66.55667512 447.69751221 76.11666803 447.72568373 C91.62890687 447.77110043 107.14115343 447.80773637 122.65342712 447.83882141 C137.71789403 447.86902796 152.78234208 447.90338789 167.8467865 447.9433136 C168.77610188 447.94577515 169.70541727 447.9482367 170.66289373 447.95077284 C175.3252178 447.96314785 179.98754164 447.9756043 184.64986539 447.98810124 C223.2993012 448.09159232 261.94875993 448.18082084 300.59825134 448.26069641 C300.35812317 447.37692322 300.35812317 447.37692322 300.11314392 446.47529602 C297.12817005 433.63665306 300.39307031 419.56099813 307.06309509 408.44429016 C315.02108764 397.12490636 325.15961176 388.19616846 338.59825134 384.26069641 C340.59797401 384.22739072 342.59860442 384.22311753 344.59825134 384.26069641 C344.56220919 348.3530648 344.50520195 312.44552707 344.42033039 276.53797692 C344.41031371 272.29255564 344.40046945 268.04713397 344.39073181 263.80171204 C344.38879044 262.95657441 344.38684907 262.11143678 344.38484886 261.24068892 C344.35388224 247.58126494 344.33686315 233.92185773 344.32505712 220.26240528 C344.31261784 206.2320464 344.28505401 192.20177513 344.24363828 178.1714716 C344.21858213 169.52369642 344.20512828 160.87606666 344.20682177 152.22825468 C344.20685167 146.28693405 344.19210531 140.34576085 344.16608706 134.40449774 C344.1515324 130.98377321 344.14315856 127.56335093 344.15244865 124.14260101 C344.18287514 107.19505591 344.05405188 91.1145715 335.78575134 75.82319641 C335.26754822 74.83029602 335.26754822 74.83029602 334.73887634 73.81733704 C331.89006643 68.50060205 328.65384808 63.7398777 324.59825134 59.26069641 C323.72813416 58.25329407 323.72813416 58.25329407 322.84043884 57.22554016 C312.82028017 46.34591181 298.2485276 39.14053456 283.59825134 37.26069641 C279.73427648 37.11009031 275.87264896 37.11287544 272.00610352 37.11352539 C270.83141382 37.1098487 269.65672413 37.10617201 268.44643778 37.10238391 C265.1938919 37.09328563 261.94137568 37.08865366 258.68881929 37.0859946 C255.17734969 37.08207945 251.66589454 37.07250193 248.1544342 37.06378174 C239.67774141 37.0440506 231.20104749 37.033955 222.72433749 37.02505395 C218.72704612 37.02066522 214.72975607 37.0152999 210.73246574 37.01006508 C197.43494091 36.99305552 184.13741689 36.97856324 170.83988285 36.97131634 C167.3917446 36.96940662 163.94360636 36.96748626 160.49546814 36.9655304 C159.63850814 36.96504666 158.78154813 36.96456292 157.89861964 36.96406452 C144.02869415 36.9557712 130.1588551 36.93044489 116.28896732 36.89794972 C102.03133676 36.86481999 87.77375003 36.84686221 73.5160808 36.8436721 C65.51814341 36.84151238 57.52033206 36.832843 49.52243233 36.80721092 C42.70845402 36.78542288 35.89463235 36.77749306 29.08062316 36.7871777 C25.6093189 36.79169922 22.13833728 36.78996322 18.66707802 36.77041626 C-1.22782447 36.57528719 -1.22782447 36.57528719 -20.40174866 41.26069641 C-21.13401137 41.53040095 -21.86627409 41.8001055 -22.62072659 42.0779829 C-42.7733603 50.27501955 -56.92247036 66.28139464 -65.97596741 85.62397766 C-70.98953008 97.95463181 -72.84110081 110.18355794 -72.80799866 123.42866516 C-72.82455182 125.38800749 -72.84112112 127.34734984 -72.85866547 129.30668354 C-72.89053514 133.37791238 -72.89662679 137.449255 -72.90705872 141.52058411 C-72.92040371 146.19848438 -72.95565243 150.87589983 -72.99549866 155.55366516 C-72.99247742 156.78481552 -72.98945618 158.01596588 -72.98634338 159.28442383 C-72.99645447 160.42023392 -73.00656555 161.55604401 -73.01698303 162.72627258 C-73.01903748 163.72551254 -73.02109192 164.7247525 -73.02320862 165.75427246 C-73.47294678 168.73211994 -74.08012455 169.42039168 -76.40174866 171.26069641 C-79.45486047 171.5240629 -82.30115134 171.60507988 -85.35194397 171.55024719 C-86.2677272 171.54598221 -87.18351044 171.54171722 -88.12704468 171.537323 C-90.11760255 171.52701225 -92.10813508 171.51030209 -94.09859467 171.48799515 C-97.25142732 171.45578874 -100.40348461 171.44704983 -103.55647278 171.44572449 C-112.52136563 171.4401084 -121.48563152 171.4110588 -130.4500885 171.31929016 C-135.9328193 171.26484775 -141.41417958 171.25420013 -146.89713287 171.27143478 C-148.98474436 171.26949278 -151.07240931 171.25103523 -153.15972137 171.21562576 C-164.18968688 170.54437553 -164.18968688 170.54437553 -174.13941956 174.21229553 C-175.90038869 176.49001415 -177.09500274 178.70815393 -178.40174866 181.26069641 C-186.39105388 188.96814474 -195.08371794 190.83168639 -205.94789124 190.82099915 C-214.73424901 190.48890871 -221.72720305 186.93062046 -228.27674866 181.13569641 C-235.78737543 172.66548096 -238.4310471 164.0412059 -237.78846741 152.96772766 C-236.68869523 142.42546712 -232.20920473 135.207741 -224.08924866 128.44819641 C-214.90311268 121.78672695 -205.43219776 121.28317424 -194.40174866 122.26069641 C-187.16678025 123.85790363 -181.25008455 127.67958925 -176.40174866 133.26069641 C-176.14555756 133.89658691 -175.88936646 134.53247742 -175.62541199 135.18763733 C-174.49089849 137.7515117 -173.47520176 139.35379569 -171.40174866 141.26069641 C-166.68575747 142.47915854 -161.97036668 142.33311304 -157.13221741 142.26069641 C-155.72686521 142.2682191 -154.32152782 142.27925674 -152.91622925 142.2936554 C-149.22822366 142.32204027 -145.54195786 142.30283467 -141.85401917 142.27357483 C-138.08661135 142.2521518 -134.31951518 142.27592786 -130.55213928 142.29585266 C-123.16824214 142.32826679 -115.78559827 142.31038745 -108.40174866 142.26069641 C-108.43316956 141.21019104 -108.46459045 140.15968567 -108.4969635 139.0773468 C-109.55779065 100.11000269 -104.15002192 64.91658027 -76.56581116 35.17085266 C-56.53000004 14.10812091 -29.44762146 -0.0981372 0 0 Z " fill="#01C4FA" transform="translate(672.4017486572266,235.7393035888672)"/>
<path d="M0 0 C1.59859108 0.00308167 1.59859108 0.00308167 3.22947693 0.00622559 C4.4407576 -0.00307983 5.65203827 -0.01238525 6.90002441 -0.02197266 C8.85639076 0.00262024 8.85639076 0.00262024 10.85227966 0.02770996 C12.20700982 0.02942158 13.5617433 0.02935486 14.91647339 0.02758789 C17.75208838 0.02923974 20.58691142 0.04791252 23.42234802 0.07946777 C27.05651532 0.11918434 30.68964763 0.12350821 34.32399082 0.11600494 C37.1198881 0.11293556 39.91555273 0.12505371 42.71139336 0.14213562 C44.70279465 0.15258152 46.69424028 0.15301325 48.68566895 0.15332031 C49.89379745 0.16923218 51.10192596 0.18514404 52.34666443 0.20153809 C53.41159622 0.20995728 54.47652802 0.21837646 55.57373047 0.22705078 C58.67401503 0.68853964 59.36028002 1.16413057 61.22337341 3.62145996 C61.5925169 5.91154003 61.5925169 5.91154003 61.58413696 8.65177917 C61.58826096 9.69084412 61.59238495 10.72990906 61.59663391 11.80046082 C61.58584808 12.93981583 61.57506226 14.07917084 61.56394958 15.25305176 C61.5646067 17.05324265 61.5646067 17.05324265 61.5652771 18.88980103 C61.56354392 22.18106164 61.54848873 25.47175921 61.52755523 28.76292014 C61.50881389 32.20222554 61.50704 35.64153826 61.503479 39.08088684 C61.49415103 45.59385577 61.46952717 52.10667382 61.43943053 58.61957628 C61.40590985 66.03423558 61.3894064 73.44890205 61.37434423 80.86361825 C61.34297818 96.11631958 61.29020319 111.36887032 61.22337341 126.62145996 C62.49464658 125.52277999 63.76395787 124.42182971 65.03245544 123.31994629 C65.7395163 122.70710281 66.44657715 122.09425934 67.17506409 121.46284485 C70.01363118 118.91103567 72.55916017 116.15356329 75.09837341 113.30895996 C78.81836255 109.20579598 82.59095533 105.19983807 86.53587341 101.30895996 C89.99513677 97.89369359 93.22278393 94.37686653 96.37962341 90.68395996 C99.37809857 87.32973351 102.61759987 84.21993503 105.81712341 81.05895996 C107.87786686 78.97145361 109.81852967 76.84976773 111.72337341 74.62145996 C115.20550317 70.54802515 118.99892767 66.83110878 122.80931091 63.06677246 C125.51088635 60.33022517 128.01416076 57.4716663 130.51243591 54.55114746 C132.96910461 51.78038414 135.61697318 49.21853096 138.25462341 46.62145996 C140.16323796 44.68254994 141.95047893 42.68446445 143.72337341 40.62145996 C146.12013929 37.83249603 148.60296732 35.20155211 151.22337341 32.62145996 C153.782066 30.10190607 156.20507952 27.54027214 158.53587341 24.80895996 C161.44587603 21.41950611 164.54493445 18.25691073 167.72337341 15.12145996 C172.10825464 10.78489698 176.23057609 6.31739141 180.22337341 1.62145996 C181.22337341 0.62145996 181.22337341 0.62145996 183.50756836 0.50120544 C184.51794662 0.50342606 185.52832489 0.50564667 186.56932068 0.50793457 C188.28098167 0.50804787 188.28098167 0.50804787 190.02722168 0.50816345 C191.26886581 0.51332474 192.51050995 0.51848602 193.78977966 0.52380371 C195.68541908 0.52592613 195.68541908 0.52592613 197.61935425 0.52809143 C200.9846223 0.53275414 204.34982331 0.54174516 207.71507263 0.55279541 C211.14687011 0.5630115 214.5786745 0.56758947 218.01048279 0.57263184 C224.74813166 0.58368616 231.48574866 0.60044286 238.22337341 0.62145996 C238.82493591 2.49157715 238.82493591 2.49157715 239.22337341 4.62145996 C237.59837341 6.69958496 237.59837341 6.69958496 235.22337341 8.87145996 C232.21537702 11.71208716 229.34101978 14.53121238 226.66087341 17.68395996 C223.66619885 21.17659426 220.46899804 24.39499879 217.19212341 27.62145996 C215.28350886 29.56036998 213.4962679 31.55845547 211.72337341 33.62145996 C208.70574988 37.13287644 205.48978261 40.37453398 202.19212341 43.62145996 C200.28350886 45.56036998 198.4962679 47.55845547 196.72337341 49.62145996 C194.32660753 52.41042389 191.84377951 55.04136781 189.22337341 57.62145996 C186.66468082 60.14101385 184.24166731 62.70264778 181.91087341 65.43395996 C179.00086928 68.82341557 175.90178166 71.98598142 172.72337341 75.12145996 C168.96120719 78.83288039 165.39527505 82.64004416 161.96556091 86.66052246 C159.96899451 88.90777881 157.86324395 91.01040923 155.72337341 93.12145996 C152.38474282 96.42074642 149.23709518 99.79842746 146.19993591 103.37536621 C144.60802901 105.18435132 142.9853582 106.91967623 141.30931091 108.64880371 C140.54626648 109.44677368 140.54626648 109.44677368 139.76780701 110.26086426 C138.75204429 111.32014131 137.72650736 112.37014632 136.69065857 113.40979004 C135.09711297 115.02949877 135.09711297 115.02949877 133.22337341 117.62145996 C133.72928241 122.0846528 136.71197496 124.7853361 139.59837341 127.99645996 C143.80984451 132.78734685 147.88388344 137.6375751 151.78587341 142.68395996 C155.33040927 147.2561187 158.95982569 151.72776472 162.72337341 156.12145996 C166.91415206 161.01785911 170.93173783 166.02221044 174.88743591 171.10974121 C178.58496118 175.84882289 182.38843966 180.49312749 186.22337341 185.12145996 C191.03399351 190.92949939 195.75631774 196.79368287 200.39573669 202.73913574 C203.79852803 207.09586341 207.27458285 211.38663608 210.78587341 215.65661621 C218.41561348 224.93702119 226.01241314 234.2440637 233.38401794 243.73156738 C235.45211721 246.39038722 237.54410727 249.00091973 239.71946716 251.57458496 C240.46325623 252.45630371 241.20704529 253.33802246 241.97337341 254.24645996 C242.62821716 255.00185059 243.28306091 255.75724121 243.95774841 256.53552246 C245.22337341 258.62145996 245.22337341 258.62145996 244.80247498 260.75183105 C244.61137146 261.36880859 244.42026794 261.98578613 244.22337341 262.62145996 C236.85249316 262.9477908 229.48319906 263.19552576 222.10652447 263.34683037 C218.67955874 263.41951203 215.25757626 263.51776838 211.83348083 263.6776123 C187.88368929 264.76619296 187.88368929 264.76619296 182.15940857 259.75915527 C179.64079926 256.89473126 177.81194543 253.77754936 176.12538147 250.36810303 C174.86679096 247.93097581 173.21953647 245.91501922 171.47337341 243.80895996 C170.38977342 242.41333363 169.30643671 241.01750283 168.22337341 239.62145996 C162.6893852 232.49776856 157.13028916 225.39448967 151.55003357 218.30700684 C149.73374218 215.9993742 147.91951332 213.69012439 146.10545349 211.3807373 C145.18494775 210.20900715 144.26421248 209.03745728 143.34324646 207.86608887 C141.07263271 204.97782634 138.8049736 202.08734391 136.54368591 199.19177246 C131.12969379 192.26689882 125.63559278 185.41453797 120.07737732 178.6048584 C115.96190339 173.55421706 111.91472965 168.45391015 107.91282654 163.31286621 C105.8008803 160.60456698 103.65184292 157.94937259 101.41087341 155.34802246 C99.22337341 152.62145996 99.22337341 152.62145996 99.22337341 150.62145996 C93.98331088 155.02071016 89.10557938 159.6928031 84.30125427 164.56311035 C81.0179657 167.87376441 77.61787792 170.97008548 74.07102966 173.99255371 C71.50768588 176.25241493 69.13631541 178.68094773 66.76634216 181.14099121 C65.22337341 182.62145996 65.22337341 182.62145996 62.22337341 184.62145996 C61.77115196 187.78746303 61.77115196 187.78746303 61.85447693 191.57800293 C61.85071045 192.29363403 61.84694397 193.00926514 61.84306335 193.74658203 C61.83662048 195.30276046 61.83697067 196.85897822 61.84324837 198.41515732 C61.85233351 200.87824651 61.84216465 203.3405703 61.82662964 205.80361938 C61.7864596 212.80685176 61.78532721 219.81002613 61.7875824 226.81335449 C61.78763348 231.09519754 61.76847307 235.37662918 61.73824883 239.65835953 C61.7274082 242.08487586 61.73956402 244.5106118 61.7520752 246.93710327 C61.74317081 248.42678603 61.73309643 249.91646242 61.72166443 251.40612793 C61.7218306 252.70581512 61.72199677 254.00550232 61.72216797 255.34457397 C61.22337341 258.62145996 61.22337341 258.62145996 59.56761169 261.04006958 C56.59003458 263.04870149 54.79691091 263.1283489 51.2172699 263.13903809 C50.00598923 263.15164673 48.79470856 263.16425537 47.54672241 263.17724609 C46.24247818 263.16914917 44.93823395 263.16105225 43.59446716 263.15270996 C42.23973309 263.15540551 40.8850009 263.15928846 39.53027344 263.16430664 C36.69479401 263.1701969 33.85981944 263.16165363 31.0243988 263.14294434 C27.39011014 263.12013201 23.75700157 263.13329341 20.122756 263.15723419 C17.32686464 263.17168707 14.53125325 263.16708919 11.73535347 263.15672302 C9.74392047 263.15275864 7.75247657 263.16490238 5.76107788 263.17724609 C3.94888512 263.15833313 3.94888512 263.15833313 2.1000824 263.13903809 C1.0351506 263.13585571 -0.02978119 263.13267334 -1.12698364 263.12939453 C-3.77662659 262.62145996 -3.77662659 262.62145996 -5.6186676 260.76269531 C-8.0763519 256.21807796 -7.24419319 250.66171664 -7.21412659 245.62145996 C-7.23410706 244.43294434 -7.25408752 243.24442871 -7.27467346 242.01989746 C-7.27402893 240.87778809 -7.2733844 239.73567871 -7.27272034 238.55895996 C-7.27457336 237.5161084 -7.27642639 236.47325684 -7.27833557 235.39880371 C-6.64582793 231.89738916 -5.60765397 230.72804832 -2.77662659 228.62145996 C-0.68605042 228.09143066 -0.68605042 228.09143066 1.51634216 228.04724121 C2.31104919 228.01952637 3.10575623 227.99181152 3.92454529 227.96325684 C4.74503357 227.95358887 5.56552185 227.9439209 6.41087341 227.93395996 C11.73793972 228.29553528 11.73793972 228.29553528 16.22337341 226.62145996 C16.32328677 224.17005186 16.35779181 221.74675835 16.35035706 219.2947998 C16.35269704 218.13076409 16.35269704 218.13076409 16.3550843 216.94321251 C16.35909737 214.32292194 16.35590348 211.70268854 16.35276794 209.08239746 C16.35412185 207.21197475 16.35590172 205.34155231 16.358078 203.47113037 C16.36265362 198.376237 16.36086225 193.28136378 16.35769892 188.18647003 C16.35517597 182.86711063 16.35751267 177.54775302 16.35908508 172.22839355 C16.36090697 163.29365731 16.35849996 154.35892933 16.35374451 145.42419434 C16.34830185 135.07852454 16.35006449 124.73287444 16.35557091 114.38720512 C16.36010149 105.52184823 16.36075286 96.65649728 16.35813224 87.7911396 C16.35656916 82.48870648 16.35637654 77.18628263 16.35966873 71.8838501 C16.36254665 66.90007347 16.36057322 61.91632238 16.35477448 56.93254852 C16.35344645 55.09787793 16.35384171 53.26320522 16.35603714 51.42853546 C16.35874699 48.93503417 16.35536957 46.44161603 16.35035706 43.94812012 C16.35370314 42.84459229 16.35370314 42.84459229 16.35711682 41.71877098 C16.6357832 38.38602509 16.6357832 38.38602509 15.22337341 35.62145996 C11.70026114 35.45135261 8.18382573 35.32426922 4.65696716 35.27966309 C1.1155069 35.14815808 -1.49636315 34.73923603 -4.78834534 33.35583496 C-8.13868278 28.7482982 -7.45523715 23.71647148 -7.33912659 18.18395996 C-7.35008362 17.05151855 -7.36104065 15.91907715 -7.37232971 14.75231934 C-7.25628762 1.62409027 -7.25628762 1.62409027 0 0 Z " fill="#00C6FB" transform="translate(683.7766265869141,344.3785400390625)"/>
<path d="M0 0 C2.421875 2.3046875 2.421875 2.3046875 3.21173096 4.46609497 C4.54130003 7.65240136 5.66245457 9.18160189 8.421875 11.3046875 C15.34603334 13.10486513 22.93132022 12.36488333 30.015625 12.2265625 C32.1674296 12.21951612 34.31925425 12.21716383 36.47106934 12.21929932 C42.13129706 12.21559849 47.78986065 12.16254257 53.449646 12.0947876 C62.50783492 11.99017634 71.56583803 11.94070144 80.62458801 11.92856598 C83.786024 11.91425311 86.94577052 11.86690131 90.10681152 11.81658936 C92.04841493 11.80587806 93.99002512 11.79631555 95.93164062 11.78808594 C96.80766434 11.76532089 97.68368805 11.74255585 98.58625793 11.71910095 C102.84601253 11.73101227 105.57279368 11.98361438 108.95251465 14.7119751 C112.77350932 18.72384006 112.66283131 21.73183668 112.734375 27.0546875 C112.76337891 27.75851562 112.79238281 28.46234375 112.82226562 29.1875 C112.88459011 34.34604963 111.81745575 37.21775427 108.421875 41.3046875 C104.42037854 43.97235181 100.95938515 43.53611404 96.31982422 43.46484375 C94.92170753 43.45581779 94.92170753 43.45581779 93.49534607 43.4466095 C91.46879188 43.43340458 89.44226043 43.41626644 87.41576767 43.39569092 C83.10213689 43.35713798 78.78874076 43.3549542 74.47496223 43.35089111 C66.44253197 43.34315271 58.41089227 43.32167943 50.37890625 43.23291016 C44.7923206 43.1725712 39.20745953 43.16114581 33.62060928 43.18161011 C31.49556916 43.18033596 29.37045854 43.1611212 27.24575424 43.12332153 C15.64952784 42.53309318 15.64952784 42.53309318 5.18203735 46.52720642 C2.95871612 49.01180075 1.22369359 51.5112963 -0.578125 54.3046875 C-2.66257623 55.95364655 -4.48806555 56.78346714 -6.953125 57.8671875 C-7.95085938 58.32222656 -8.94859375 58.77726562 -9.9765625 59.24609375 C-17.58911239 62.34369288 -26.20758602 62.78135486 -34.0234375 60.140625 C-44.19691697 55.16862376 -51.56046979 48.86073721 -55.96508789 38.26269531 C-57.0433586 34.81875622 -57.02281451 31.44938847 -56.953125 27.8671875 C-56.94297363 27.114375 -56.93282227 26.3615625 -56.92236328 25.5859375 C-56.77016996 20.15888898 -56.17702176 16.15596146 -53.578125 11.3046875 C-53.18753906 10.57121094 -52.79695313 9.83773438 -52.39453125 9.08203125 C-47.59191374 0.93254715 -40.03744042 -4.67790531 -30.921875 -7.26171875 C-19.23808411 -9.42322007 -9.67571234 -6.5262355 0 0 Z " fill="#01C8F7" transform="translate(546.578125,448.6953125)"/>
<path d="M0 0 C5.17823211 2.95402503 9.83173841 7.3955825 11.88671875 13.12109375 C13.51612318 21.26811588 13.54682861 29.35548404 8.87890625 36.4296875 C4.10419646 42.27479822 -1.53493924 46.77361319 -9.27734375 47.609375 C-16.64909012 47.85340522 -22.13749975 46.54738388 -28.359375 42.640625 C-34.45533742 36.54466258 -36.79253367 30.59991861 -36.984375 22.078125 C-36.89703681 14.9799124 -35.71720879 10.59806042 -30.87109375 5.39453125 C-21.59666215 -3.26760778 -11.6156088 -5.18684418 0 0 Z " fill="#000711" transform="translate(1036.671875,649.671875)"/>
<path d="M0 0 C3.85544798 1.99657127 5.59805092 3.39707638 8 7 C8.59992545 11.16052196 8.43783544 14.9054114 6.875 18.8125 C3.87784744 22.30917799 1.34351205 24.73706938 -3.40234375 25.26953125 C-8.08184357 25.12175757 -11.28620053 24.3941824 -14.625 21 C-17.1813589 17.46321937 -17.76693112 14.46607653 -17.46484375 10.1484375 C-15.4094629 0.64877811 -8.46776303 -1.0930394 0 0 Z " fill="#000912" transform="translate(474,546)"/>
<path d="M0 0 C3.8026029 2.0050088 5.61790841 3.42686262 8 7 C8.66175067 11.04712777 8.94221821 15.22065714 6.984375 18.91796875 C4.9184549 21.43814237 2.70663284 23.19557811 0 25 C-4.75175157 25.4673854 -7.03586856 25.4911613 -11.3125 23.3125 C-14.55298267 20.52417771 -16.6454898 18.4224864 -17.28125 14.078125 C-17.48387533 9.58659696 -16.95276632 6.56368349 -14 3 C-9.79572415 -0.58599999 -5.29424854 -0.85751913 0 0 Z " fill="#010912" transform="translate(474,380)"/>
<path d="M0 0 C3.12578143 1.6720747 5.39281175 3.7856235 7 7 C7.52137294 11.82911 7.73402673 15.74166846 5.25 20 C1.06088738 23.72365566 -2.31318478 24.44694147 -7.8125 24.3203125 C-11.12666123 23.8350246 -12.77202532 22.43051784 -15 20 C-17.49754653 15.76657007 -17.840947 11.81254817 -17 7 C-13.03121338 -0.11135744 -7.60452124 -1.07138737 0 0 Z " fill="#010913" transform="translate(529,464)"/>
<path d="M0 0 C0.66 0 1.32 0 2 0 C2.02505615 0.71655762 2.0501123 1.43311523 2.07592773 2.17138672 C2.19169751 5.40611514 2.31450969 8.64053841 2.4375 11.875 C2.47681641 13.00292969 2.51613281 14.13085938 2.55664062 15.29296875 C2.59853516 16.36933594 2.64042969 17.44570313 2.68359375 18.5546875 C2.72025146 19.54968262 2.75690918 20.54467773 2.79467773 21.56982422 C2.84959532 24.00779501 2.84959532 24.00779501 4 26 C5.65 26 7.3 26 9 26 C9 26.66 9 27.32 9 28 C13.62 28 18.24 28 23 28 C23 28.33 23 28.66 23 29 C20.10315842 29.10829314 17.21038981 29.18743954 14.3125 29.25 C13.49587891 29.28351563 12.67925781 29.31703125 11.83789062 29.3515625 C8.1154777 29.41184449 5.42324792 29.1684354 1.9375 27.78125 C-1.35259238 23.05837545 -0.51448872 17.83731866 -0.3125 12.25 C-0.27866211 10.48849609 -0.27866211 10.48849609 -0.24414062 8.69140625 C-0.1852296 5.79298363 -0.10301631 2.89713573 0 0 Z " fill="#03D1E5" transform="translate(677,350)"/>
<path d="M0 0 C0 4.05959279 -1.51778536 5.00697946 -4.25 7.9375 C-5.03890625 8.79214844 -5.8278125 9.64679688 -6.640625 10.52734375 C-8.73044273 12.71750041 -10.84721565 14.87190354 -13 17 C-13.66 16.67 -14.32 16.34 -15 16 C-14.25556641 15.27296875 -14.25556641 15.27296875 -13.49609375 14.53125 C-8.76945304 9.867392 -4.3033455 5.05643097 0 0 Z " fill="#03CCF0" transform="translate(831,381)"/>
<path d="M0 0 C0 0.66 0 1.32 0 2 C-1.40682757 2.97138094 -2.81976519 3.93538756 -4.265625 4.84765625 C-7.03030717 6.68455093 -9.48152029 8.84130311 -12 11 C-12.33 10.01 -12.66 9.02 -13 8 C-11.2126038 6.66094733 -9.41995047 5.32890934 -7.625 4 C-6.62726563 3.2575 -5.62953125 2.515 -4.6015625 1.75 C-2 0 -2 0 0 0 Z " fill="#05C6E9" transform="translate(511,444)"/>
<path d="M0 0 C1.16161779 2.86578759 0.9946154 4.01630163 0.00390625 7.015625 C-0.70958984 8.61664063 -0.70958984 8.61664063 -1.4375 10.25 C-1.91058594 11.32765625 -2.38367188 12.4053125 -2.87109375 13.515625 C-3.24363281 14.33546875 -3.61617187 15.1553125 -4 16 C-4.66 16 -5.32 16 -6 16 C-4.43551329 10.3856009 -2.83604813 5.13189662 0 0 Z " fill="#01BFDD" transform="translate(577,298)"/>
<path d="M0 0 C0.66 0.66 1.32 1.32 2 2 C-0.64 4.64 -3.28 7.28 -6 10 C-6.33 9.01 -6.66 8.02 -7 7 C-4.69 4.69 -2.38 2.38 0 0 Z " fill="#04BEE6" transform="translate(847,364)"/>
<path d="M0 0 C0 3.58912412 -0.66436554 4.10857029 -3 6.6875 C-3.556875 7.31011719 -4.11375 7.93273437 -4.6875 8.57421875 C-5.120625 9.04472656 -5.55375 9.51523437 -6 10 C-6.33 9.01 -6.66 8.02 -7 7 C-4.69 4.69 -2.38 2.38 0 0 Z " fill="#04CBF5" transform="translate(839,373)"/>
<path d="M0 0 C0.99 0.33 1.98 0.66 3 1 C0.69 3.31 -1.62 5.62 -4 8 C-4.66 7.67 -5.32 7.34 -6 7 C-4.02 4.69 -2.04 2.38 0 0 Z " fill="#00111C" transform="translate(554,493)"/>
<path d="M0 0 C-1.13499394 3.29148243 -1.99283376 3.9959869 -5.125 5.75 C-6.548125 6.36875 -6.548125 6.36875 -8 7 C-6.56389554 2.69168661 -4.72692072 0 0 0 Z " fill="#01C8EA" transform="translate(493,416)"/>
<path d="M0 0 C0.99 0.66 1.98 1.32 3 2 C1.02 3.98 -0.96 5.96 -3 8 C-3.66 7.67 -4.32 7.34 -5 7 C-4.360625 6.21625 -3.72125 5.4325 -3.0625 4.625 C-1.01857687 2.20460719 -1.01857687 2.20460719 0 0 Z " fill="#02B0E4" transform="translate(1046,683)"/>
<path d="M0 0 C0 3.93169105 -1.39419615 5.16427228 -4 8 C-4.66 8 -5.32 8 -6 8 C-4.55746343 4.63408134 -2.66735273 2.48952921 0 0 Z " fill="#03BDE4" transform="translate(831,381)"/>
</svg>
