<svg xmlns="http://www.w3.org/2000/svg" viewBox="0 0 500 460" width="100%" height="100%">
  <defs>
    <marker id="arrow-blue" viewBox="0 0 10 10" refX="6" refY="5" markerWidth="6" markerHeight="6" orient="auto-start-reverse">
      <path d="M 0 2 L 6 5 L 0 8 z" fill="#0369a1"/>
    </marker>
    <marker id="arrow-gray" viewBox="0 0 10 10" refX="6" refY="5" markerWidth="6" markerHeight="6" orient="auto-start-reverse">
      <path d="M 0 2 L 6 5 L 0 8 z" fill="#64748b"/>
    </marker>
  </defs>

  <!-- Connection Lines (Inputs -> API) -->
  <g fill="none" stroke="#cbd5e1" stroke-width="1.2" stroke-dasharray="3 3">
    <!-- VS Code -> API -->
    <path d="M 90,70 C 90,130 250,130 250,190" marker-end="url(#arrow-gray)"/>
    <!-- Git Push -> API (Solid line) -->
    <path d="M 250,70 L 250,190" stroke-dasharray="none" stroke="#64748b" marker-end="url(#arrow-gray)"/>
    <!-- WhatsApp -> API -->
    <path d="M 410,70 C 410,130 250,130 250,190" marker-end="url(#arrow-gray)"/>
  </g>

  <!-- Connection Lines (API -> Database & UI) -->
  <g fill="none" stroke="#0369a1" stroke-width="1.6">
    <!-- API -> DB -->
    <path d="M 250,260 C 250,315 145,315 145,370" marker-end="url(#arrow-blue)"/>
    <!-- API -> UI -->
    <path d="M 250,260 C 250,315 355,315 355,370" marker-end="url(#arrow-blue)"/>
  </g>

  <!-- Connection Line (Database -> UI: Semantic Search flow) -->
  <path d="M 230,397 L 262,397" fill="none" stroke="#64748b" stroke-width="1.2" stroke-dasharray="3 3" marker-end="url(#arrow-gray)"/>

  <!-- Top Row: Input Sources -->
  <g font-family="system-ui, -apple-system, sans-serif">
    <!-- Card 1: VS Code -->
    <rect x="20" y="20" width="140" height="50" rx="6" fill="#ffffff" stroke="#cbd5e1" stroke-width="1"/>
    <!-- VS Code Icon (Brackets/Code) -->
    <g transform="translate(32, 32) scale(0.85)" stroke="#0369a1" stroke-width="1.8" fill="none" stroke-linecap="round" stroke-linejoin="round">
      <path d="M 4,2 L 0,8 L 4,14" />
      <path d="M 12,2 L 16,8 L 12,14" />
      <path d="M 10,1 L 6,15" />
    </g>
    <text x="54" y="38" font-size="11" font-weight="600" fill="#0f172a">VS Code / CLI</text>
    <text x="54" y="50" font-size="9" fill="#64748b">Chats &amp; logs</text>

    <!-- Card 2: Git Push -->
    <rect x="180" y="20" width="140" height="50" rx="6" fill="#ffffff" stroke="#cbd5e1" stroke-width="1"/>
    <!-- GitHub Icon -->
    <g transform="translate(192, 32) scale(0.68)" fill="#64748b">
      <path d="M12 2A10 10 0 0 0 2 12c0 4.42 2.87 8.17 6.84 9.5.5.08.66-.23.66-.5v-1.69c-2.77.6-3.36-1.34-3.36-1.34-.46-1.16-1.11-1.47-1.11-1.47-.9-.62.07-.6.07-.6 1 .07 1.53 1.03 1.53 1.03.9 1.52 2.34 1.07 2.91.83.09-.65.35-1.09.63-1.34-2.22-.25-4.55-1.11-4.55-4.92 0-1.11.38-2 1.03-2.71-.1-.25-.45-1.29.1-2.64 0 0 .84-.27 2.75 1.02.79-.22 1.65-.33 2.5-.33.85 0 1.71.11 2.5.33 1.91-1.29 2.75-1.02 2.75-1.02.55 1.35.2 2.39.1 2.64.65.71 1.03 1.6 1.03 2.71 0 3.82-2.34 4.66-4.57 4.91.36.31.69.92.69 1.85V21c0 .27.16.59.67.5C19.14 20.16 22 16.42 22 12A10 10 0 0 0 12 2z"/>
    </g>
    <text x="214" y="38" font-size="11" font-weight="600" fill="#0f172a">Git Push</text>
    <text x="214" y="50" font-size="9" fill="#64748b">Commit diffs</text>

    <!-- Card 3: Messaging -->
    <rect x="340" y="20" width="140" height="50" rx="6" fill="#ffffff" stroke="#cbd5e1" stroke-width="1"/>
    <!-- WhatsApp Icon -->
    <g transform="translate(352, 32) scale(0.68)" stroke="#64748b" stroke-width="1.8" fill="none" stroke-linecap="round" stroke-linejoin="round">
      <path d="M21 11.5a8.38 8.38 0 0 1-.9 3.8 8.5 8.5 0 0 1-7.6 4.7 8.38 8.38 0 0 1-3.8-.9L3 21l1.9-5.7a8.38 8.38 0 0 1-.9-3.8 8.5 8.5 0 0 1 4.7-7.6 8.38 8.38 0 0 1 3.8-.9h.5a8.48 8.48 0 0 1 8 8v.5z"/>
    </g>
    <text x="374" y="38" font-size="11" font-weight="600" fill="#0f172a">WhatsApp/WA</text>
    <text x="374" y="50" font-size="9" fill="#64748b">Audio &amp; text notes</text>
  </g>

  <!-- Middle Row: API Ingestion Hub -->
  <g font-family="system-ui, -apple-system, sans-serif">
    <rect x="175" y="190" width="150" height="70" rx="8" fill="#ffffff" stroke="#0369a1" stroke-width="1.5"/>
    <g transform="translate(238, 198) scale(0.01913876)">
      <path d="M0 0 C1.4 -0.0 2.9 -0.0 4.3 -0.0 C8.2 -0.0 12.1 -0.0 16.0 -0.0 C19.4 -0.0 22.7 -0.1 26.1 -0.1 C37.1 -0.1 48.2 -0.1 59.3 -0.1 C62.2 -0.1 65.0 -0.2 67.9 -0.2 C85.8 -0.2 103.8 -0.2 121.7 -0.2 C125.8 -0.2 130.0 -0.2 134.1 -0.2 C135.2 -0.2 136.2 -0.2 137.3 -0.2 C154.0 -0.3 170.6 -0.3 187.3 -0.4 C204.5 -0.4 221.6 -0.4 238.8 -0.4 C248.4 -0.4 258.0 -0.5 267.6 -0.5 C275.8 -0.5 284.0 -0.6 292.2 -0.5 C296.4 -0.5 300.6 -0.5 304.8 -0.6 C329.0 -0.7 349.8 1.8 371.1 14.2 C372.0 14.7 372.0 14.7 372.9 15.2 C382.0 20.5 389.6 26.8 397.1 34.2 C397.7 34.7 398.4 35.3 399.0 35.9 C415.4 51.0 425.5 73.5 429.6 95.1 C430.1 97.3 430.1 97.3 431.1 99.9 C432.8 105.8 432.4 112.0 432.3 118.1 C432.3 119.6 432.3 121.0 432.3 122.4 C432.3 126.4 432.3 130.3 432.3 134.2 C432.3 138.5 432.3 142.7 432.3 146.9 C432.3 154.3 432.3 161.6 432.3 169.0 C432.3 179.6 432.3 190.2 432.3 200.8 C432.3 218.1 432.3 235.3 432.2 252.5 C432.2 269.2 432.2 286.0 432.2 302.7 C432.2 304.3 432.2 304.3 432.2 305.8 C432.2 311.0 432.2 316.2 432.2 321.4 C432.2 364.3 432.1 407.2 432.1 450.2 C433.2 450.6 433.2 450.6 434.4 451.0 C447.3 456.4 454.3 468.9 459.8 480.9 C462.7 488.3 463.4 494.8 463.3 502.7 C463.3 503.6 463.4 504.5 463.4 505.5 C463.3 520.1 456.9 533.6 447.1 544.2 C446.4 544.9 445.8 545.6 445.1 546.3 C434.4 557.7 421.0 564.3 405.4 564.8 C391.3 564.8 380.6 562.3 368.6 554.5 C366.3 553.0 366.3 553.0 364.0 553.3 C362.0 554.1 362.0 554.1 360.4 555.7 C357.4 557.6 355.4 557.5 351.8 557.5 C350.5 557.6 349.2 557.6 347.8 557.6 C346.4 557.6 344.9 557.6 343.5 557.6 C342.0 557.6 340.4 557.6 338.9 557.6 C334.7 557.6 330.4 557.6 326.2 557.6 C321.6 557.6 317.1 557.6 312.5 557.6 C303.6 557.6 294.6 557.6 285.7 557.6 C278.4 557.6 271.1 557.6 263.8 557.6 C261.7 557.6 259.6 557.6 257.5 557.6 C256.5 557.6 255.4 557.6 254.4 557.6 C234.6 557.7 214.8 557.7 195.1 557.7 C177.0 557.7 159.0 557.7 141.0 557.7 C122.4 557.7 103.9 557.8 85.3 557.8 C74.9 557.8 64.5 557.8 54.1 557.8 C45.3 557.8 36.4 557.8 27.5 557.8 C23.0 557.8 18.5 557.8 14.0 557.8 C-11.2 557.9 -35.0 556.9 -57.9 545.2 C-59.2 544.5 -60.5 543.9 -61.9 543.2 C-69.6 539.3 -76.4 534.9 -82.9 529.2 C-83.7 528.5 -84.6 527.7 -85.4 527.0 C-104.1 510.7 -117.4 489.9 -124.3 466.1 C-124.9 464.3 -125.4 462.5 -126.0 460.7 C-129.9 446.5 -129.6 432.2 -129.7 417.6 C-129.7 408.5 -129.8 399.5 -129.9 390.2 C-153.3 389.8 -176.8 389.5 -200.9 389.2 C-201.6 390.8 -202.2 392.5 -202.9 394.2 C-209.6 402.5 -216.9 406.8 -226.9 410.2 C-240.2 411.4 -251.4 410.4 -262.0 401.8 C-269.9 394.8 -275.6 387.2 -276.4 376.4 C-276.7 367.5 -276.8 358.9 -271.9 351.2 C-271.2 350.0 -271.2 350.0 -270.4 348.8 C-264.4 340.3 -255.2 333.5 -244.9 331.2 C-232.9 329.9 -222.1 330.9 -212.1 338.3 C-207.3 342.4 -203.2 346.7 -199.9 352.2 C-199.9 353.2 -199.9 354.1 -199.9 355.2 C-199.4 355.2 -198.8 355.2 -198.2 355.2 C-184.8 355.1 -171.3 355.0 -157.8 355.0 C-151.3 355.0 -144.8 355.0 -138.3 354.9 C-132.0 354.9 -125.7 354.9 -119.4 354.9 C-117.0 354.9 -114.6 354.9 -112.2 354.8 C-108.9 354.8 -105.5 354.8 -102.2 354.8 C-100.7 354.8 -100.7 354.8 -99.1 354.8 C-98.2 354.8 -97.3 354.8 -96.4 354.8 C-95.2 354.8 -95.2 354.8 -94.0 354.8 C-91.4 355.3 -90.5 356.0 -88.9 358.2 C-88.6 360.8 -88.5 363.3 -88.5 365.9 C-88.5 366.7 -88.5 367.5 -88.5 368.3 C-88.5 370.0 -88.5 371.8 -88.5 373.5 C-88.5 376.2 -88.5 378.9 -88.5 381.7 C-88.4 387.5 -88.4 393.3 -88.4 399.1 C-88.4 405.8 -88.4 412.5 -88.3 419.2 C-88.3 421.9 -88.3 424.6 -88.3 427.2 C-88.3 436.3 -87.8 444.5 -84.9 453.2 C-84.5 454.3 -84.5 454.3 -84.2 455.5 C-81.3 464.5 -77.5 472.6 -71.9 480.2 C-71.2 481.1 -70.5 482.1 -69.7 483.1 C-55.4 501.3 -34.8 512.3 -11.9 515.2 C-9.8 515.2 -7.6 515.3 -5.5 515.3 C-4.3 515.3 -3.0 515.3 -1.7 515.3 C-0.3 515.3 1.0 515.3 2.4 515.3 C3.9 515.3 5.3 515.3 6.8 515.3 C10.8 515.3 14.9 515.4 18.9 515.4 C23.3 515.4 27.6 515.4 32.0 515.4 C39.5 515.4 47.0 515.4 54.6 515.5 C65.5 515.5 76.4 515.5 87.3 515.5 C104.9 515.6 122.6 515.6 140.3 515.7 C157.5 515.7 174.6 515.7 191.8 515.8 C193.4 515.8 193.4 515.8 195.0 515.8 C200.3 515.8 205.6 515.8 210.9 515.8 C255.0 516.0 299.0 516.1 343.1 516.2 C342.8 515.2 342.4 514.2 342.1 513.2 C340.2 492.3 345.0 476.5 357.7 460.0 C365.7 451.3 377.7 444.7 389.1 442.2 C390.4 442.2 391.7 442.2 393.1 442.2 C393.1 400.6 393.1 359.1 393.0 317.5 C393.0 312.6 393.0 307.7 393.0 302.8 C393.0 301.8 393.0 300.8 393.0 299.8 C393.0 284.0 393.0 268.2 393.0 252.4 C393.0 236.1 393.0 219.9 392.9 203.6 C392.9 193.6 392.9 183.6 392.9 173.6 C392.9 166.8 392.9 159.9 392.9 153.0 C392.9 149.0 392.9 145.1 392.9 141.1 C393.0 112.3 388.8 86.7 368.1 65.2 C353.0 50.7 333.5 42.3 312.6 42.5 C311.3 42.5 309.9 42.5 308.5 42.5 C304.7 42.5 301.0 42.5 297.2 42.5 C293.1 42.5 289.1 42.5 285.0 42.5 C277.0 42.5 269.0 42.5 261.1 42.5 C254.6 42.5 248.1 42.5 241.6 42.5 C240.7 42.5 239.8 42.5 238.8 42.5 C236.9 42.5 235.1 42.5 233.2 42.5 C215.6 42.5 198.0 42.5 180.4 42.5 C165.3 42.5 150.2 42.5 135.2 42.5 C117.6 42.5 100.1 42.5 82.6 42.5 C80.7 42.5 78.8 42.5 76.9 42.5 C76.0 42.5 75.1 42.5 74.2 42.5 C67.7 42.5 61.2 42.5 54.8 42.5 C46.9 42.5 39.0 42.5 31.1 42.5 C27.1 42.5 23.0 42.5 19.0 42.5 C-8.2 42.4 -29.9 45.6 -51.9 63.2 C-52.6 63.7 -53.3 64.2 -54.0 64.8 C-70.2 77.9 -81.9 100.7 -84.9 121.2 C-85.2 125.9 -85.2 130.6 -85.2 135.3 C-85.2 137.7 -85.2 140.1 -85.2 142.4 C-85.3 149.1 -85.3 155.9 -85.3 162.6 C-85.3 166.7 -85.3 170.8 -85.4 175.0 C-85.4 176.5 -85.4 178.1 -85.4 179.7 C-85.4 181.9 -85.4 184.1 -85.4 186.2 C-85.4 187.5 -85.4 188.7 -85.4 190.0 C-85.9 193.2 -85.9 193.2 -87.3 195.6 C-91.5 198.1 -95.6 197.7 -100.4 197.6 C-101.4 197.6 -102.5 197.6 -103.6 197.6 C-105.9 197.5 -108.2 197.5 -110.5 197.5 C-114.1 197.5 -117.8 197.4 -121.5 197.4 C-131.8 197.4 -142.2 197.4 -152.6 197.3 C-159.0 197.2 -165.3 197.2 -171.7 197.2 C-174.1 197.2 -176.5 197.2 -178.9 197.1 C-182.3 197.1 -185.7 197.1 -189.1 197.1 C-190.1 197.1 -191.1 197.1 -192.1 197.0 C-196.3 197.1 -198.9 197.2 -202.0 200.1 C-203.9 202.5 -203.9 202.5 -205.4 204.9 C-209.2 210.7 -214.5 213.8 -220.8 216.3 C-222.9 217.1 -222.9 217.1 -224.6 218.2 C-231.9 221.2 -243.6 220.0 -250.9 217.7 C-261.8 212.9 -270.0 204.3 -274.6 193.4 C-277.8 184.3 -277.7 172.1 -273.8 163.2 C-267.5 150.8 -257.9 143.9 -244.9 139.5 C-232.5 137.4 -221.9 139.8 -211.5 147.0 C-205.6 151.8 -202.4 155.8 -199.9 163.2 C-175.8 162.8 -151.7 162.5 -126.9 162.2 C-126.9 155.3 -126.8 148.4 -126.8 141.3 C-126.2 105.9 -118.0 72.2 -93.9 45.2 C-93.2 44.3 -92.5 43.5 -91.8 42.7 C-82.1 31.4 -70.7 22.6 -57.9 15.2 C-56.3 14.2 -56.3 14.2 -54.7 13.3 C-37.6 4.0 -19.3 0.0 0 0 Z " fill="#01C9F9" transform="translate(521.9,313.8)"/>
      <path d="M0 0 C1.0 -0.0 1.0 -0.0 2.0 -0.0 C4.1 -0.0 6.3 -0.0 8.5 -0.0 C10.0 -0.0 11.5 -0.0 13.0 -0.1 C16.1 -0.1 19.3 -0.1 22.4 -0.0 C26.5 -0.0 30.5 -0.0 34.5 -0.1 C37.6 -0.1 40.7 -0.1 43.8 -0.1 C45.3 -0.1 46.8 -0.1 48.3 -0.1 C50.4 -0.1 52.5 -0.1 54.5 -0.1 C56.3 -0.1 56.3 -0.1 58.1 -0.1 C61.3 0.5 61.3 0.5 64.2 2.2 C67.5 7.5 66.9 12.8 66.8 19.0 C66.8 20.3 66.8 21.7 66.8 23.1 C66.8 26.8 66.8 30.6 66.8 34.3 C66.7 38.2 66.7 42.1 66.7 46.0 C66.7 53.4 66.7 60.8 66.6 68.2 C66.6 76.7 66.5 85.1 66.5 93.5 C66.5 110.9 66.4 128.2 66.3 145.5 C67.2 144.7 68.2 144.0 69.2 143.2 C69.7 142.7 70.2 142.3 70.8 141.8 C72.6 140.3 74.1 138.6 75.6 136.8 C78.2 133.7 80.9 130.9 83.8 128.0 C86.5 125.3 89.2 122.5 91.7 119.6 C94.4 116.4 97.3 113.5 100.3 110.5 C103.2 107.7 106.0 104.8 108.6 101.7 C112.3 97.3 116.4 93.4 120.5 89.3 C124.0 85.8 127.4 82.2 130.6 78.4 C133.3 75.4 136.2 72.6 139.1 69.8 C141.1 67.7 142.9 65.7 144.8 63.5 C147.3 60.6 150.0 57.8 152.8 55.0 C155.5 52.3 158.2 49.5 160.7 46.6 C163.4 43.4 166.3 40.5 169.3 37.5 C172.2 34.6 175.0 31.7 177.7 28.6 C181.0 24.7 184.6 21.2 188.2 17.6 C191.5 14.3 194.6 10.9 197.6 7.4 C198.2 6.8 198.7 6.2 199.3 5.5 C200.0 4.7 200.7 3.8 201.5 3.0 C204.9 0.0 206.3 -0.1 210.7 -0.1 C212.0 -0.1 213.3 -0.1 214.6 -0.1 C216.0 -0.0 217.3 -0.0 218.7 0.0 C220.1 0.0 221.6 0.0 223.0 0.0 C226.0 0.0 229.0 0.1 231.9 0.1 C235.8 0.2 239.6 0.2 243.4 0.2 C247.1 0.2 250.7 0.2 254.3 0.3 C255.4 0.3 255.4 0.3 256.5 0.3 C258.4 0.3 260.4 0.3 262.4 0.3 C264.0 0.4 264.0 0.4 265.8 0.4 C268.3 0.5 268.3 0.5 269.3 1.5 C269.7 3.6 269.7 3.6 269.3 6.5 C267.4 9.2 265.1 11.5 262.8 13.8 C261.4 15.2 260.0 16.6 258.6 18.0 C257.9 18.8 257.2 19.5 256.5 20.3 C252.9 24.0 249.4 27.8 245.8 31.5 C241.3 36.3 236.8 41.1 232.1 45.7 C230.3 47.5 228.6 49.4 227.0 51.3 C224.0 54.7 220.9 57.9 217.8 61.0 C214.7 64.0 211.7 67.1 209.0 70.3 C205.0 75.0 200.7 79.1 196.4 83.4 C192.7 87.1 189.2 90.8 185.8 94.8 C183.6 97.3 181.3 99.5 179.0 101.8 C177.2 103.6 175.5 105.5 173.8 107.5 C170.8 111.0 167.6 114.3 164.2 117.5 C161.7 120.1 159.4 122.8 157.0 125.6 C154.7 128.2 152.1 130.5 149.5 132.8 C148.0 134.5 148.0 134.5 148.3 136.9 C149.4 140.0 150.9 141.9 153.0 144.3 C154.2 145.8 154.2 145.8 155.5 147.2 C155.9 147.8 156.4 148.3 156.8 148.8 C159.5 152.0 162.1 155.2 164.7 158.5 C168.6 163.2 172.5 168.0 176.4 172.7 C180.3 177.4 184.1 182.1 187.9 187.0 C191.6 191.7 195.4 196.4 199.3 201.0 C204.1 206.8 208.8 212.7 213.4 218.6 C216.3 222.3 219.2 225.9 222.3 229.5 C226.3 234.3 230.1 239.1 234.0 244.0 C237.5 248.6 241.1 253.1 244.8 257.5 C249.3 263.1 253.8 268.7 258.2 274.3 C262.2 279.4 266.3 284.6 270.4 289.6 C276.6 297.3 276.6 297.3 276.3 302.5 C267.8 302.9 259.3 303.2 250.7 303.4 C246.8 303.5 242.8 303.6 238.9 303.8 C213.4 305.0 213.4 305.0 206.6 300.9 C202.4 297.1 199.7 292.6 197.3 287.6 C195.9 284.7 194.0 282.4 191.9 280.0 C187.5 274.6 183.3 269.1 179.0 263.6 C174.0 257.0 168.9 250.6 163.7 244.1 C160.5 240.1 157.4 236.1 154.3 232.0 C150.2 226.7 146.0 221.4 141.8 216.2 C138.5 212.0 135.2 207.9 131.9 203.7 C127.0 197.4 122.0 191.3 117.0 185.2 C116.4 184.5 115.8 183.9 115.2 183.2 C114.7 182.5 114.2 181.9 113.7 181.3 C109.3 175.8 109.3 175.8 109.3 173.5 C99.1 182.2 89.4 191.3 80.0 200.8 C77.5 203.3 74.8 205.7 72.0 208.0 C71.4 208.5 70.9 209.0 70.3 209.5 C69.5 210.1 69.5 210.1 68.7 210.6 C66.4 213.7 66.9 217.0 66.9 220.6 C66.9 221.4 66.9 222.2 66.9 223.1 C66.9 224.9 66.9 226.7 66.9 228.4 C66.9 231.3 66.9 234.1 66.9 236.9 C66.9 244.9 66.9 253.0 66.9 261.0 C66.9 265.9 66.9 270.8 66.9 275.7 C66.9 277.6 66.9 279.5 66.9 281.4 C66.9 284.0 66.9 286.6 66.9 289.2 C66.9 290.0 66.9 290.8 66.9 291.6 C66.9 295.4 66.4 297.4 64.2 300.5 C60.6 303.0 58.7 303.2 54.3 303.2 C53.3 303.2 53.3 303.2 52.3 303.2 C50.1 303.2 47.8 303.2 45.6 303.2 C44.1 303.2 42.5 303.2 41.0 303.2 C37.7 303.2 34.5 303.2 31.2 303.2 C27.0 303.2 22.9 303.2 18.7 303.2 C15.5 303.2 12.3 303.2 9.1 303.2 C7.6 303.2 6.0 303.2 4.5 303.2 C2.4 303.2 0.2 303.2 -1.9 303.2 C-3.1 303.2 -4.4 303.2 -5.6 303.2 C-8.7 302.5 -8.7 302.5 -11.1 300.2 C-14.3 295.0 -13.3 288.9 -13.3 283.0 C-13.3 281.7 -13.3 280.4 -13.4 279.0 C-13.4 277.8 -13.4 276.5 -13.4 275.2 C-13.4 274.0 -13.4 272.9 -13.4 271.7 C-12.5 267.6 -11.0 266.1 -7.7 263.5 C-5.3 262.9 -5.3 262.9 -2.7 262.9 C-1.8 262.8 -0.8 262.8 0.1 262.8 C1.1 262.8 2.0 262.8 3.0 262.8 C4.9 262.8 6.8 262.7 8.8 262.7 C9.6 262.7 10.4 262.7 11.3 262.7 C13.3 262.8 13.3 262.8 14.3 261.5 C14.4 258.7 14.4 255.9 14.4 253.1 C14.4 252.2 14.4 251.3 14.4 250.3 C14.4 247.3 14.4 244.3 14.4 241.2 C14.4 239.1 14.4 236.9 14.4 234.7 C14.4 228.8 14.4 222.9 14.4 217.0 C14.4 210.8 14.4 204.7 14.4 198.5 C14.4 186.8 14.4 175.2 14.3 163.5 C14.3 150.2 14.3 136.9 14.3 123.6 C14.3 96.2 14.3 68.9 14.3 41.5 C13.7 41.5 13.0 41.5 12.4 41.5 C9.6 41.5 6.9 41.4 4.1 41.3 C3.1 41.3 2.2 41.3 1.2 41.2 C-3.2 41.1 -6.0 40.9 -9.9 38.7 C-12.5 35.6 -12.4 33.3 -12.4 29.3 C-12.4 28.6 -12.4 27.9 -12.4 27.2 C-12.4 25.7 -12.4 24.2 -12.4 22.8 C-12.4 20.5 -12.4 18.3 -12.4 16.1 C-12.4 14.6 -12.4 13.2 -12.4 11.8 C-12.4 10.5 -12.4 9.2 -12.4 7.9 C-11.7 4.5 -11.7 4.5 -9.6 2.4 C-6.1 0.1 -4.1 0.0 0 0 Z " fill="#01CBFB" transform="translate(537.7,438.5)"/>
      <path d="M0 0 C6.4 4.8 6.4 4.8 8.3 8.4 C10.9 13.2 10.9 13.2 15.5 16.0 C18.3 16.3 21.1 16.3 24.0 16.3 C25.0 16.3 26.1 16.3 27.2 16.3 C30.8 16.3 34.3 16.2 37.8 16.2 C40.3 16.2 42.8 16.2 45.2 16.2 C51.7 16.2 58.2 16.1 64.7 16.1 C75.1 16.0 85.5 15.9 95.9 15.9 C99.5 15.9 103.1 15.9 106.7 15.8 C109.0 15.8 111.2 15.8 113.4 15.8 C114.4 15.8 115.4 15.8 116.5 15.7 C123.7 15.7 127.0 17.1 132.2 22.2 C132.7 25.8 132.6 29.4 132.6 33.0 C132.7 33.9 132.7 34.9 132.7 36.0 C132.8 44.2 132.8 44.2 129.8 47.8 C126.5 50.9 125.1 51.3 120.7 51.3 C119.8 51.3 118.9 51.3 117.9 51.3 C116.9 51.3 115.9 51.3 114.8 51.2 C112.6 51.2 110.3 51.2 108.1 51.2 C106.3 51.2 106.3 51.2 104.5 51.2 C96.9 51.1 89.3 51.2 81.7 51.2 C75.0 51.2 68.3 51.1 61.6 51.1 C55.1 51.0 48.7 51.0 42.2 51.0 C39.7 51.0 37.3 51.0 34.8 51.0 C21.6 50.1 21.6 50.1 9.7 54.4 C7.5 56.9 5.8 59.3 4.2 62.2 C-0.0 66.7 -5.2 68.9 -10.8 71.2 C-11.8 71.7 -11.8 71.7 -12.8 72.2 C-27.0 73.9 -37.6 72.0 -49.2 63.4 C-57.1 56.5 -62.2 45.5 -63.1 35.1 C-63.4 23.7 -61.0 15.5 -53.6 6.8 C-38.7 -8.6 -18.6 -11.8 0 0 Z " fill="#01CDF9" transform="translate(371.8,556.8)"/>
      <path d="M0 0 C7.1 4.3 11.9 9.3 14.7 17.2 C17.0 26.7 15.4 33.6 10.7 41.9 C5.9 48.1 0.3 53.4 -7.6 54.9 C-17.5 56.1 -24.8 54.6 -32.7 48.3 C-37.9 43.4 -41.9 37.2 -42.6 29.9 C-42.7 29.3 -42.8 28.6 -42.8 28.0 C-43.3 19.8 -40.6 13.0 -35.4 6.6 C-26.1 -3.0 -12.5 -5.8 0 0 Z " fill="#00060E" transform="translate(937.6,790.1)"/>
      <path d="M0 0 C3.4 1.7 3.4 1.7 6 4 C6.8 4.7 7.6 5.4 8.4 6.1 C10.8 10.4 10.9 14.2 10 19 C8.2 23.0 5.8 25.4 2.3 27.9 C-2.6 29.5 -8.0 30.5 -12.9 28.1 C-16.9 25.0 -19.5 21.1 -20.3 16.1 C-20.7 9.7 -18.0 6.3 -13.9 1.6 C-9.4 -0.9 -5.1 -0.7 0 0 Z " fill="#000A13" transform="translate(291,479)"/>
      <path d="M0 0 C3.8 2.5 6.6 5.0 8.9 8.9 C9.8 14.0 9.3 16.8 6.8 21.2 C4.5 24.5 2.7 26.6 -1.1 27.9 C-5.6 28.5 -9.6 28.5 -13.9 26.8 C-20.5 21.1 -20.5 21.1 -21.6 16.6 C-22.0 11.4 -21.2 8.4 -17.8 4.4 C-12.5 -1.1 -7.4 -2.6 0 0 Z " fill="#000912" transform="translate(292.1,671.1)"/>
      <path d="M0 0 C3.2 2.1 4.9 3.4 6.8 6.8 C7.5 12.1 7.4 16.4 5.1 21.3 C1.0 25.7 -1.7 27.0 -7.8 27.2 C-11.4 27.1 -13.0 26.9 -16.2 25.1 C-20.3 20.4 -21.8 17.3 -21.5 11.0 C-21.0 6.8 -19.4 3.9 -16.2 1 C-11.0 -2.1 -5.5 -2.0 0 0 Z " fill="#000810" transform="translate(356.2,577.2)"/>
      <path d="M0 0 C0.7 1.7 0.7 1.7 1 4 C-0.5 6.1 -0.5 6.1 -2.8 8.3 C-3.7 9.1 -4.5 9.9 -5.3 10.8 C-6.2 11.6 -7.0 12.4 -7.9 13.2 C-9.2 14.5 -9.2 14.5 -10.6 15.8 C-12.7 17.9 -14.8 19.9 -17 22 C-18.0 21.7 -19.0 21.3 -20 21 C-19.3 20.3 -19.3 20.3 -18.5 19.5 C-16.2 17.3 -14.0 15.0 -11.7 12.8 C-10.9 12.0 -10.1 11.2 -9.3 10.4 C-8.5 9.6 -7.8 8.9 -7.0 8.1 C-6.3 7.4 -5.6 6.7 -4.9 6.0 C-3.1 4.1 -1.5 2.1 0 0 Z " fill="#03C5E9" transform="translate(666,519)"/>
      <path d="M0 0 C0 0.7 0 1.3 0 2 C-4.6 2 -9.2 2 -14 2 C-14 2.7 -14 3.3 -14 4 C-19.9 4.5 -19.9 4.5 -26 5 C-19.3 -1.7 -8.7 -0.3 0 0 Z " fill="#02BAD4" transform="translate(356,550)"/>
      <path d="M0 0 C1.0 0.3 2.0 0.7 3 1 C2.8 1.6 2.7 2.1 2.5 2.7 C2.0 5.1 1.8 7.3 1.7 9.8 C1.6 10.7 1.6 11.5 1.6 12.5 C1.5 13.8 1.5 13.8 1.4 15.2 C1.4 16.2 1.4 17.1 1.3 18.1 C1.2 20.4 1.1 22.7 1 25 C-1 23 -1 23 -1.2 21.0 C-1.2 20.2 -1.2 19.4 -1.2 18.5 C-1.2 17.7 -1.2 16.8 -1.2 15.9 C-1.2 14.5 -1.2 14.5 -1.2 13.1 C-1.2 12.1 -1.2 11.2 -1.2 10.3 C-1.1 3.4 -1.1 3.4 0 0 Z " fill="#02CAE4" transform="translate(247,480)"/>
      <path d="M0 0 C1.0 0.3 2.0 0.7 3 1 C-1.3 5.3 -5.6 9.6 -10 14 C-10.7 13.3 -11.3 12.7 -12 12 C-8.0 8.0 -4.1 4.1 0 0 Z " fill="#001017" transform="translate(746,509)"/>
      <path d="M0 0 C1.7 0.3 3.3 0.6 5 1 C1.1 3.6 -1.6 5.3 -6.3 5.2 C-7.5 5.2 -7.5 5.2 -8.8 5.2 C-9.6 5.2 -10.4 5.1 -11.2 5.1 C-12.1 5.1 -12.9 5.1 -13.8 5.1 C-15.9 5.1 -17.9 5.0 -20 5 C-20 4.7 -20 4.3 -20 4 C-19.0 4.0 -17.9 3.9 -16.9 3.9 C-15.5 3.8 -14.1 3.7 -12.8 3.6 C-12.1 3.6 -11.4 3.6 -10.7 3.5 C-6.6 3.3 -3.0 3.0 0 0 Z " fill="#01B6D2" transform="translate(297,528)"/>
      <path d="M0 0 C3.4 3.2 5.6 5.6 7 10 C7.4 10.8 7.8 11.7 8.2 12.6 C9.1 15.3 8.8 16.3 8 19 C6.7 16.4 5.3 13.8 4 11.2 C3.6 10.4 3.2 9.7 2.8 9.0 C2.5 8.2 2.1 7.5 1.8 6.8 C1.4 6.1 1.1 5.5 0.7 4.8 C0 3 0 3 0 0 Z " fill="#02C7ED" transform="translate(901,390)"/>
      <path d="M0 0 C0.1 1.6 0.1 3.2 0.1 4.8 C0.1 5.7 0.2 6.6 0.2 7.5 C0 10 0 10 -2 13 C-2.7 13 -3.3 13 -4 13 C-3.9 11.0 -3.8 9.0 -3.6 7.1 C-3.6 6.0 -3.5 4.9 -3.4 3.7 C-3.3 2.8 -3.1 1.9 -3 1 C-1 0 -1 0 0 0 Z " fill="#04BEED" transform="translate(956,811)"/>
      <path d="M0 0 C0.7 0.7 1.3 1.3 2 2 C1.6 4.1 1.6 4.1 1 6 C0.3 6 -0.3 6 -1 6 C-1 7.0 -1 8.0 -1 9 C-0.3 9.3 0.3 9.7 1 10 C0.0 10.5 0.0 10.5 -1 11 C-1.7 14.0 -1.7 14.0 -2 17 C-2.3 17 -2.7 17 -3 17 C-3.4 10.5 -2.6 5.9 0 0 Z " fill="#003347" transform="translate(898,803)"/>
      <path d="M0 0 C1.0 0.3 2.0 0.7 3 1 C2.3 1 1.7 1 1 1 C0.8 1.6 0.5 2.2 0.2 2.8 C-1.2 5.3 -2.9 7.0 -5 9 C-6.0 8.7 -7.0 8.3 -8 8 C-7.0 6.9 -6.1 5.7 -5.1 4.6 C-4.6 3.9 -4.1 3.3 -3.5 2.6 C-2 1 -2 1 0 0 Z " fill="#05C7E8" transform="translate(261,653)"/>
      <path d="M0 0 C0.7 0.3 1.3 0.7 2 1 C-5.3 8.5 -5.3 8.5 -9 11 C-9.7 10.7 -10.3 10.3 -11 10 C-9.7 8.7 -8.5 7.4 -7.2 6.1 C-6.5 5.4 -5.8 4.7 -5.0 3.9 C-3 2 -3 2 0 0 Z " fill="#04CDEA" transform="translate(443,344)"/>
      <path d="M0 0 C-1.4 3.2 -2.9 5.0 -5.6 7.2 C-6.6 8.0 -6.6 8.0 -7.5 8.8 C-8.0 9.2 -8.5 9.6 -9 10 C-9.7 9.7 -10.3 9.3 -11 9 C-9.5 7.5 -8.1 6.0 -6.6 4.5 C-5.4 3.2 -5.4 3.2 -4.2 2.0 C-2 0 -2 0 0 0 Z " fill="#001B24" transform="translate(760,496)"/>
      <path d="M0 0 C1.0 0.3 2.0 0.7 3 1 C1.6 4.4 0.0 6.0 -3 8 C-3.3 6.3 -3.7 4.7 -4 3 C-2.2 1.4 -2.2 1.4 0 0 Z " fill="#06C6E7" transform="translate(530,440)"/>
      <path d="M0 0 C0 3.2 -0.3 4.4 -2 7 C-4 8.3 -4 8.3 -6 9 C-6.7 8.7 -7.3 8.3 -8 8 C-5.4 5.4 -2.7 2.7 0 0 Z " fill="#011F2D" transform="translate(317,709)"/>
      <path d="M0 0 C-1 3 -1 3 -2.7 4.2 C-3.4 4.5 -4.1 4.9 -4.8 5.2 C-5.5 5.6 -6.2 6.0 -6.9 6.3 C-9.4 7.1 -10.6 6.8 -13 6 C-11.2 5.0 -9.4 4.0 -7.6 3 C-6.6 2.4 -5.6 1.9 -4.6 1.3 C-2 0 -2 0 0 0 Z " fill="#03C1DD" transform="translate(473,325)"/>
      <path d="M0 0 C0.7 0.3 1.3 0.7 2 1 C1.1 2.5 0.1 4.0 -0.9 5.5 C-1.4 6.3 -1.9 7.2 -2.5 8.0 C-3.0 8.7 -3.5 9.3 -4 10 C-4.7 10 -5.3 10 -6 10 C-4.6 6.0 -2.7 3.2 0 0 Z " fill="#05C6DE" transform="translate(319,563)"/>
      <path d="M0 0 C0.7 0.7 1.3 1.3 2 2 C0.0 4.3 -2.0 6.6 -4 9 C-4.7 8.7 -5.3 8.3 -6 8 C-4.6 4.6 -2.7 2.5 0 0 Z " fill="#03CDEC" transform="translate(259,463)"/>
      <path d="M0 0 C0.3 1.0 0.7 2.0 1 3 C0.0 4.0 -0.9 5.0 -1.9 6 C-2.4 6.6 -2.9 7.1 -3.5 7.7 C-5 9 -5 9 -7 9 C-5.4 5.2 -3.0 2.8 0 0 Z " fill="#02C6E2" transform="translate(634,553)"/>
      <path d="M0 0 C0.7 1.0 1.3 2.0 2 3 C-0.3 5.0 -2.6 7.0 -5 9 C-5.7 8.7 -6.3 8.3 -7 8 C-4.7 5.4 -2.4 2.7 0 0 Z " fill="#00131D" transform="translate(729,526)"/>
      <path d="M0 0 C1.0 0.1 2.0 0.2 3.0 0.3 C3.8 0.4 4.5 0.5 5.3 0.6 C5.3 0.9 5.3 1.2 5.3 1.6 C3.5 1.8 1.8 2.0 0 2.2 C-1.0 2.3 -2.0 2.4 -3.0 2.5 C-5.7 2.6 -5.7 2.6 -8.7 0.6 C-5.4 -0.5 -3.4 -0.4 0 0 Z " fill="#011827" transform="translate(513.7,357.4)"/>
      <path d="M0 0 C-1 1.6 -1 1.6 -3 3 C-5.8 3.0 -8.3 2.5 -11 2 C-7.5 -0.3 -4.0 -2.0 0 0 Z " fill="#03BFE1" transform="translate(283,721)"/>
      <path d="M0 0 C0.7 0.7 1.3 1.3 2 2 C0.0 4.0 -2.0 6.0 -4 8 C-5.0 7.7 -6.0 7.3 -7 7 C-4.7 4.7 -2.4 2.4 0 0 Z " fill="#00151E" transform="translate(777,476)"/>
      <path d="M0 0 C0.7 0.7 1.3 1.3 2 2 C-1.5 5.0 -1.5 5.0 -5 8 C-5 5 -5 5 -2.5 2.3 C-1.7 1.5 -0.8 0.8 0 0 Z " fill="#011621" transform="translate(795,457)"/>
      <path d="M0 0 C0.3 1.0 0.7 2.0 1 3 C-2.0 5.5 -2.0 5.5 -5 8 C-5.7 7.7 -6.3 7.3 -7 7 C-4.7 4.7 -2.4 2.4 0 0 Z " fill="#000E16" transform="translate(698,560)"/>
      <path d="M0 0 C0.3 0.7 0.7 1.3 1 2 C1.7 2.1 2.3 2.3 3 2.4 C3.7 2.6 4.3 2.8 5 3 C5.3 4.0 5.7 5.0 6 6 C2.2 4.9 -0.5 4.1 -3 1 C-2.0 0.7 -1.0 0.3 0 0 Z " fill="#04B6D1" transform="translate(266,525)"/>
      <path d="M0 0 C1.0 0 2.0 0 3 0 C3 2.3 3 4.6 3 7 C2.0 7.3 1.0 7.7 0 8 C0 5.4 0 2.7 0 0 Z " fill="#01A8CD" transform="translate(363,586)"/>
      <path d="M0 0 C1.0 0.3 2.0 0.7 3 1 C1.4 2.6 -0.3 4.3 -2 6 C-3.0 5.7 -4.0 5.3 -5 5 C-3.4 3.4 -1.7 1.7 0 0 Z " fill="#03BFDE" transform="translate(616,572)"/>
      <path d="M0 0 C-0.3 1.0 -0.7 2.0 -1 3 C-3.3 3 -5.6 3 -8 3 C-4.9 0.4 -4.3 0 0 0 Z " fill="#011B29" transform="translate(919,788)"/>
      <path d="M0 0 C1.0 0.7 2.0 1.3 3 2 C1.7 3.3 0.4 4.6 -1 6 C-1.7 5.7 -2.3 5.3 -3 5 C-1.1 1.1 -1.1 1.1 0 0 Z " fill="#02CAEC" transform="translate(323,559)"/>
      <path d="M0 0 C0.3 1.0 0.7 2.0 1 3 C-1.3 4.6 -1.3 4.6 -4 6 C-5.0 5.7 -6.0 5.3 -7 5 C-4.7 3.4 -2.4 1.7 0 0 Z " fill="#03CAEA" transform="translate(453,336)"/>
    </g>
    <text x="250" y="235" font-size="13" font-weight="bold" fill="#0369a1" text-anchor="middle">Kote API</text>
    <text x="250" y="249" font-size="10" fill="#64748b" text-anchor="middle">Ingestion Hub</text>
  </g>

  <!-- Bottom Row: Database & User Interface -->
  <g font-family="system-ui, -apple-system, sans-serif">
    <!-- Card 4: Cloud Database -->
    <rect x="60" y="370" width="170" height="55" rx="8" fill="#ffffff" stroke="#cbd5e1" stroke-width="1"/>
    <!-- Database Stack Icon -->
    <g transform="translate(70, 383) scale(0.72)" stroke="#64748b" stroke-width="1.8" fill="none" stroke-linecap="round" stroke-linejoin="round">
      <ellipse cx="12" cy="5" rx="9" ry="3"/>
      <path d="M3 5v14c0 1.66 4 3 9 3s9-1.34 9-3V5"/>
      <path d="M3 12c0 1.66 4 3 9 3s9-1.34 9-3"/>
    </g>
    <text x="96" y="391" font-size="12" font-weight="600" fill="#0f172a">Cloud Database</text>
    <text x="96" y="405" font-size="9.5" fill="#64748b">Vector storage</text>

    <!-- Card 5: User Interface -->
    <rect x="270" y="370" width="170" height="55" rx="8" fill="#ffffff" stroke="#cbd5e1" stroke-width="1"/>
    <!-- Browser/UI Icon -->
    <g transform="translate(280, 383) scale(0.72)" stroke="#64748b" stroke-width="1.8" fill="none" stroke-linecap="round" stroke-linejoin="round">
      <rect x="2" y="3" width="20" height="18" rx="2" ry="2"/>
      <line x1="2" y1="9" x2="22" y2="9"/>
      <line x1="6" y1="6" x2="6.01" y2="6"/>
      <line x1="10" y1="6" x2="10.01" y2="6"/>
    </g>
    <text x="306" y="391" font-size="12" font-weight="600" fill="#0f172a">Web Application</text>
    <text x="306" y="405" font-size="9.5" fill="#64748b">Search &amp; Map view</text>
  </g>
</svg>
